<?xml version="1.0" encoding="UTF-8" standalone="no"?>
<svg
   viewBox="0 0 234.33839 92.558455"
   height="92.558456"
   width="234.33839"
   xml:space="preserve"
   id="svg2"
   version="1.1"
   sodipodi:docname="acotel-logo.svg"
   inkscape:version="1.1.2 (0a00cf5339, 2022-02-04)"
   xmlns:inkscape="http://www.inkscape.org/namespaces/inkscape"
   xmlns:sodipodi="http://sodipodi.sourceforge.net/DTD/sodipodi-0.dtd"
   xmlns="http://www.w3.org/2000/svg"
   xmlns:svg="http://www.w3.org/2000/svg"
   xmlns:rdf="http://www.w3.org/1999/02/22-rdf-syntax-ns#"
   xmlns:cc="http://creativecommons.org/ns#"
   xmlns:dc="http://purl.org/dc/elements/1.1/"><sodipodi:namedview
     id="namedview21"
     pagecolor="#ffffff"
     bordercolor="#666666"
     borderopacity="1.0"
     inkscape:pageshadow="2"
     inkscape:pageopacity="0.0"
     inkscape:pagecheckerboard="0"
     showgrid="false"
     inkscape:zoom="0.78205956"
     inkscape:cx="95.900625"
     inkscape:cy="340.76689"
     inkscape:window-width="1158"
     inkscape:window-height="1226"
     inkscape:window-x="1050"
     inkscape:window-y="31"
     inkscape:window-maximized="0"
     inkscape:current-layer="g12"
     fit-margin-top="0"
     fit-margin-left="0"
     fit-margin-right="0"
     fit-margin-bottom="0" /><metadata
     id="metadata8"><rdf:RDF><cc:Work
         rdf:about=""><dc:format>image/svg+xml</dc:format><dc:type
           rdf:resource="http://purl.org/dc/dcmitype/StillImage" /></cc:Work></rdf:RDF></metadata><defs
     id="defs6" /><g
     transform="matrix(1.3333333,0,0,-1.3333333,-11.338546,181.01419)"
     id="g10"><g
       transform="scale(0.1)"
       id="g12"><path
         id="path16"
         style="fill:#a4a1a2;fill-opacity:1;fill-rule:nonzero;stroke:none"
         d="m 602.883,834.133 h -0.02 v 0 H 475.867 c -14.578,0 -26.801,8.687 -35.262,25.168 -8.464,15.094 -12.222,33.371 -12.222,54.879 0,21.039 3.758,38.422 11.765,52.605 8.457,15.559 20.684,23.778 35.719,23.778 h 126.836 1.543 c 0,0 10.606,40.367 42.445,57.807 H 544.77 l -79.243,-0.15 c -32.437,0 -58.328,-14.66 -77.601,-43.92 -17.383,-26.081 -25.875,-57.636 -25.875,-95.152 0,-36.578 8.492,-67.238 25.418,-92.367 19.261,-27.937 45.125,-41.652 78.058,-41.652 l 179.793,-0.09 c -32.121,17.344 -42.437,59.094 -42.437,59.094" /><path
         id="path18"
         style="fill:#a4a1a2;fill-opacity:1;fill-rule:nonzero;stroke:none"
         d="m 1507.55,775.129 c -35.27,0 -63.51,8.703 -84.21,26.078 -16,13.25 -27.73,32.023 -34.33,55.348 -4.23,15.097 -6.59,32.011 -6.59,49.851 0,4.121 0,7.324 0,8.68 0,1.848 -0.33,133.134 -0.33,133.134 h 62.88 V 919.68 c 0,-22.871 5.18,-42.528 15.06,-58.102 11.29,-18.293 27.29,-27.445 47.52,-27.445 h 111.94 v -59.004 h -111.94" /><path
         id="path20"
         style="fill:#a4a1a2;fill-opacity:1;fill-rule:nonzero;stroke:none"
         d="m 811.301,775.129 c 32.937,0 59.277,13.726 78.074,41.656 16.934,25.129 25.402,55.785 25.402,92.375 0,37.508 -8.468,69.078 -25.867,95.15 -19.75,29.26 -45.152,43.91 -77.609,43.91 h -91.723 c -32.43,0 -57.84,-14.65 -77.117,-43.91 -17.418,-26.072 -26.348,-57.642 -26.348,-95.15 0,-36.59 8.485,-67.246 25.895,-92.375 18.797,-27.93 44.656,-41.656 77.57,-41.656 z m -10.36,59.004 h -71.023 c -14.582,0 -26.797,8.687 -35.715,25.168 -8.012,15.094 -11.762,33.371 -11.762,54.879 0,21.039 3.75,38.422 11.762,52.605 8.449,15.559 20.684,23.778 35.715,23.778 h 71.023 c 15.067,0 27.305,-8.219 35.774,-23.778 8,-14.183 11.734,-31.566 11.734,-52.605 0,-21.508 -4.211,-39.785 -12.219,-54.879 -8.941,-16.481 -20.679,-25.168 -35.289,-25.168" /><path
         id="path22"
         style="fill:#a4a1a2;fill-opacity:1;fill-rule:nonzero;stroke:none"
         d="m 880.383,1048.2 c 32.156,-17.33 42.449,-57.595 42.449,-57.595 l 0.383,0.204 v -0.246 h 59.93 V 775.129 h 61.145 v 215.434 h 63.48 v 0.042 0 c 0,0 7.21,40.265 39.37,57.595 H 880.383" /><path
         id="path24"
         style="fill:#a4a1a2;fill-opacity:1;fill-rule:nonzero;stroke:none"
         d="m 1148.4,801.207 c 12.25,-15.609 29.01,-24.176 49.35,-25.773 h 208 c -32.3,17.484 -40.7,56.558 -41,58.062 v 0.172 h -149.59 c -7.03,0 -12.21,2.762 -15.96,7.332 -3.78,5.035 -5.66,10.988 -5.66,17.836 0,5.039 1.39,10.062 3.78,14.633 2.32,4.578 5.63,7.336 9.4,9.156 h 158.03 v 1.832 57.18 h -149.59 c -7.03,0 -12.21,2.269 -15.96,6.855 -3.78,4.578 -5.66,10.504 -5.66,16.93 0,6.859 1.88,12.348 5.66,17.387 4.21,5.015 9.4,7.754 15.96,7.754 h 149.59 v 57.657 h -159.92 c -23.51,0 -42.78,-8.69 -56.43,-26.09 -12.7,-15.55 -18.81,-34.747 -18.81,-57.161 0,-20.133 5.18,-37.528 15.51,-52.625 -10.33,-15.09 -15.51,-32.918 -15.51,-53.508 0,-22.871 6.11,-42.051 18.81,-57.629" /><path
         id="path26"
         style="fill:#a4a1a2;fill-opacity:1;fill-rule:nonzero;stroke:none"
         d="m 153.531,774.914 71.067,208.563 c 1.285,2.453 3.066,3.238 5.422,3.238 2.82,0 4.519,-1.207 5.382,-3.613 l 71.305,-208.188 h 67.02 c -8.954,26.82 -19.446,58.195 -25.368,76.352 -15.976,49.879 -27.742,86 -36.203,109.328 -13.176,37.961 -20.297,59.016 -23.586,63.576 -6.281,8.75 -13.656,13.28 -23.976,17.41 -10.821,4.09 -22.125,5.93 -34.332,5.93 -12.711,0 -24.008,-1.84 -34.824,-5.93 -10.34,-4.13 -18.348,-9.61 -23.969,-17.41 -2.824,-4.09 -11.711,-25.615 -25.352,-64.022 -11.73,-34.312 -23.972,-70.91 -36.687,-109.32 -7.035,-21.281 -16.555,-51.223 -24.3909,-75.914 h 68.4919" /><path
         id="path28"
         style="fill:#f79528;fill-opacity:1;fill-rule:nonzero;stroke:none"
         d="m 1824.45,1264.07 c -80.15,107.69 -402.99,124.92 -721.13,38.5 -170.39,-46.28 -304.824,-112.91 -380.66,-181.36 65.641,43.42 157.274,83.47 266.66,113.19 270.27,73.42 546.57,56.05 617.19,-38.81 48.5,-65.2 -12.82,-149.98 -143.61,-220.473 v -41.883 c 276.12,89.176 435.66,231.226 361.55,330.836" /><path
         id="path30"
         style="fill:#fab93d;fill-opacity:1;fill-rule:nonzero;stroke:none"
         d="m 1517,1185.3 c -43.1,59.22 -216.74,68.69 -387.84,21.16 -91.64,-25.44 -163.953,-62.1 -204.75,-99.76 35.317,23.9 84.6,45.93 143.45,62.27 145.34,40.38 293.95,30.83 331.91,-21.36 17.56,-24.11 8.35,-53.1 -20.96,-81.32 h 78.47 c 59.7,40.15 84.97,84.28 59.72,119.01" /><path
         id="path32"
         style="fill:#a4a1a2;fill-opacity:1;fill-rule:nonzero;stroke:none"
         d="m 1193.17,696.727 v -14.778 h 63 v -18.531 h 14.38 v 18.531 66.106 h -23.76 -53.62 v -17.746 z m 13.82,0 v 36.816 h 49.18 v -36.816 h -49.18" /><path
         id="path34"
         style="fill:#a4a1a2;fill-opacity:1;fill-rule:nonzero;stroke:none"
         d="m 1298.05,681.949 h -13.83 v 14.778 33.582 17.746 h 53.61 23.76 v -14.512 h -63.54 v -36.816 -14.778" /><path
         id="path36"
         style="fill:#a4a1a2;fill-opacity:1;fill-rule:nonzero;stroke:none"
         d="m 1366.78,696.727 v -14.778 h 62.11 15.26 v 30.629 35.477 h -23.76 -53.61 v -17.746 z m 13.82,0 v 36.816 h 49.19 v -36.816 h -49.19" /><path
         id="path38"
         style="fill:#a4a1a2;fill-opacity:1;fill-rule:nonzero;stroke:none"
         d="m 1523.66,696.727 v 51.328 h 14.36 v -35.477 -30.629 h -15.24 -62.11 v 14.778 33.582 17.746 h 13.81 v -51.328 h 49.18" /><path
         id="path40"
         style="fill:#a4a1a2;fill-opacity:1;fill-rule:nonzero;stroke:none"
         d="m 1548.88,663.418 h 13.82 v 18.531 h 48.28 15.27 v 30.629 35.477 h -23.77 -53.6 v -17.746 -33.582 -14.778 z m 13.82,33.309 v 36.816 h 49.18 v -36.816 h -49.18" /></g></g></svg>
