<?xml version="1.0" encoding="UTF-8" standalone="no"?>
<svg
   width="113.85165"
   height="35.158497"
   viewBox="0 0 113.85165 35.158497"
   version="1.1"
   id="svg4769"
   sodipodi:docname="google-search-console-logo.svg"
   inkscape:version="1.1.2 (0a00cf5339, 2022-02-04)"
   xmlns:inkscape="http://www.inkscape.org/namespaces/inkscape"
   xmlns:sodipodi="http://sodipodi.sourceforge.net/DTD/sodipodi-0.dtd"
   xmlns="http://www.w3.org/2000/svg"
   xmlns:svg="http://www.w3.org/2000/svg"
   xmlns:rdf="http://www.w3.org/1999/02/22-rdf-syntax-ns#"
   xmlns:cc="http://creativecommons.org/ns#"
   xmlns:dc="http://purl.org/dc/elements/1.1/">
  <sodipodi:namedview
     id="namedview4771"
     pagecolor="#ffffff"
     bordercolor="#666666"
     borderopacity="1.0"
     inkscape:pageshadow="2"
     inkscape:pageopacity="0.0"
     inkscape:pagecheckerboard="0"
     showgrid="false"
     showguides="true"
     inkscape:guide-bbox="true"
     fit-margin-top="0"
     fit-margin-left="0"
     fit-margin-right="0"
     fit-margin-bottom="0"
     inkscape:zoom="5.08233"
     inkscape:cx="74.572096"
     inkscape:cy="30.989723"
     inkscape:window-width="2066"
     inkscape:window-height="1226"
     inkscape:window-x="4"
     inkscape:window-y="31"
     inkscape:window-maximized="0"
     inkscape:current-layer="sc_logo_lockup">
    <sodipodi:guide
       position="-390.00256,419.95865"
       orientation="0.70710678,-0.70710678"
       id="guide5236" />
  </sodipodi:namedview>
  <!-- Generator: Sketch 51.2 (57519) - http://www.bohemiancoding.com/sketch -->
  <title
     id="title4722">Artboard</title>
  <desc
     id="desc4724">Created with Sketch.</desc>
  <defs
     id="defs4726" />
  <g
     id="Artboard"
     stroke="none"
     stroke-width="1"
     fill="none"
     fill-rule="evenodd"
     transform="translate(40.508643,0.84974075)">
    <g
       id="sc_logo_lockup"
       fill-rule="nonzero">
      <g
         id="XMLID_41_"
         transform="matrix(0.50653307,0,0,0.50653307,-0.02681646,25.71855)"
         fill="#616161">
        <path
           d="m 5.7,16.941176 c -1.1823529,0 -2.3294118,-0.388235 -3.4411765,-1.147058 C 1.1294118,15.017647 0.40588235,13.941176 0.05294118,12.564706 L 1.9588235,11.788235 c 0.2294118,0.882353 0.6882353,1.641177 1.3941177,2.241177 0.7058823,0.617647 1.4823529,0.917647 2.3647059,0.917647 0.9,0 1.6764705,-0.229412 2.3117647,-0.705882 0.6352941,-0.476471 0.9529411,-1.111765 0.9529411,-1.92353 0,-0.9 -0.317647,-1.605882 -0.9529411,-2.082353 C 7.3941176,9.7411765 6.3705882,9.2823529 4.9941176,8.8764706 3.5647059,8.4176471 2.4705882,7.8352941 1.7470588,7.1294118 1.0058823,6.4058823 0.63529412,5.5058823 0.63529412,4.3764706 c 0,-1.1647059 0.45882348,-2.1705882 1.37647058,-3.0352941 0.9176471,-0.86470591 2.1176471,-1.28823532 3.6,-1.28823532 1.3764706,0 2.4882353,0.33529411 3.3352941,1.02352942 0.8647059,0.6882353 1.4117652,1.4294117 1.6764702,2.2411765 L 8.7176471,4.1117647 C 8.5764706,3.6 8.2411765,3.1235294 7.7117647,2.6823529 7.1823529,2.2411765 6.4941176,2.0294118 5.6470588,2.0294118 4.8529412,2.0294118 4.1647059,2.2588235 3.6,2.7 3.0352941,3.1411765 2.7529412,3.7058824 2.7529412,4.3588235 c 0,0.6 0.2647059,1.1117647 0.7764706,1.5176471 C 4.0411765,6.2823529 4.8176471,6.6705882 5.8235294,6.9882353 6.6176471,7.2529412 7.2882353,7.5 7.8176471,7.7294118 c 0.5294117,0.2470588 1.0764706,0.5647059 1.6235294,0.9529411 0.5470588,0.4058824 0.9705885,0.9 1.2352945,1.4823531 0.282352,0.6 0.423529,1.288235 0.423529,2.064706 0,0.77647 -0.158824,1.482353 -0.494118,2.1 -0.317647,0.617647 -0.7588232,1.111764 -1.2882349,1.464706 C 8.7882353,16.147059 8.2058824,16.429412 7.5882353,16.623529 6.9705882,16.852941 6.3352941,16.941176 5.7,16.941176 Z"
           id="Shape" />
        <path
           d="m 17.894118,16.941176 c -1.676471,0 -3.035294,-0.564705 -4.076471,-1.67647 -1.041176,-1.111765 -1.570588,-2.523529 -1.570588,-4.217647 0,-1.6058825 0.511765,-3.0000002 1.517647,-4.1647061 1.023529,-1.1647058 2.311765,-1.7470588 3.9,-1.7470588 1.641176,0 2.947059,0.5294118 3.935294,1.6058824 0.988235,1.0764706 1.482353,2.5058823 1.482353,4.2882355 l -0.01765,0.388235 h -8.735294 c 0.05294,1.111765 0.441176,1.994118 1.111764,2.647059 0.688236,0.652941 1.482353,0.970588 2.4,0.970588 1.482353,0 2.505883,-0.635294 3.035295,-1.905882 l 1.852941,0.77647 c -0.352941,0.864706 -0.952941,1.570589 -1.782353,2.152941 -0.829412,0.6 -1.835294,0.882353 -3.052941,0.882353 z m 2.982353,-7.2176466 c -0.05294,-0.6352941 -0.335295,-1.2352941 -0.864706,-1.8 -0.529412,-0.5647059 -1.32353,-0.8647059 -2.382353,-0.8647059 -0.776471,0 -1.429412,0.2470588 -1.994118,0.7235294 -0.564706,0.4764706 -0.952941,1.1294118 -1.164706,1.9411765 z"
           id="path4729" />
        <path
           d="m 28.005882,16.941176 c -1.182353,0 -2.152941,-0.335294 -2.947059,-1.023529 -0.794117,-0.670588 -1.182352,-1.570588 -1.182352,-2.682353 0,-1.2 0.458823,-2.152941 1.394117,-2.841176 0.935294,-0.6882356 2.082353,-1.0235298 3.458824,-1.0235298 1.217647,0 2.223529,0.2294118 3,0.6705888 V 9.7235294 C 31.729412,8.9117647 31.447059,8.2588235 30.9,7.7647059 30.335294,7.2705882 29.664706,7.0235294 28.852941,7.0235294 c -0.6,0 -1.147059,0.1411765 -1.641176,0.4235294 -0.494118,0.282353 -0.829412,0.6705883 -1.005883,1.182353 L 24.3,7.8176471 C 24.547059,7.1470588 25.058823,6.5470588 25.817647,5.9823529 26.576471,5.4176471 27.564706,5.1352941 28.8,5.1352941 c 1.411765,0 2.594118,0.4058824 3.529412,1.2352941 C 33.264706,7.2 33.723529,8.3647059 33.723529,9.8647059 v 6.7235291 h -1.994117 v -1.535294 h -0.08824 c -0.829411,1.270588 -2.047058,1.888235 -3.635294,1.888235 z m 0.335294,-1.888235 c 0.864706,0 1.641177,-0.317647 2.329412,-0.952941 0.705883,-0.635294 1.058824,-1.394118 1.058824,-2.276471 C 31.147059,11.347059 30.264706,11.1 29.082353,11.1 c -1.005882,0 -1.764706,0.211765 -2.276471,0.652941 -0.511764,0.441177 -0.77647,0.952941 -0.77647,1.535294 0,0.547059 0.229411,0.970589 0.705882,1.288236 0.476471,0.317647 1.005883,0.47647 1.605882,0.47647 z"
           id="path4731" />
        <path
           d="M 37.782353,16.588235 H 35.7 V 5.5235294 h 1.994118 v 1.8 h 0.08823 c 0.211765,-0.6 0.635294,-1.0941176 1.305882,-1.4823529 0.652942,-0.3882353 1.288236,-0.582353 1.905883,-0.582353 0.617647,0 1.129411,0.088235 1.552941,0.2647059 L 41.752941,7.4647059 C 41.488235,7.3588235 41.117647,7.3058823 40.641176,7.3058823 c -0.758823,0 -1.411764,0.3 -1.994117,0.9000001 -0.582353,0.5999999 -0.864706,1.3764705 -0.864706,2.3294116 z"
           id="path4733" />
        <path
           d="m 48.035294,16.941176 c -1.658823,0 -3.017647,-0.564705 -4.094118,-1.67647 -1.07647,-1.129412 -1.605882,-2.523529 -1.605882,-4.217647 0,-1.6941178 0.529412,-3.0882355 1.605882,-4.2176472 C 45.017647,5.7 46.376471,5.1529412 48.035294,5.1529412 c 1.235294,0 2.258824,0.3 3.070588,0.9 0.811765,0.6 1.411765,1.3588235 1.782353,2.2764706 L 50.982353,9.1235294 C 50.417647,7.7294118 49.376471,7.0411765 47.894118,7.0411765 c -0.917647,0 -1.729412,0.3705882 -2.435295,1.1294117 C 44.752941,8.9294118 44.4,9.8823529 44.4,11.047059 c 0,1.164706 0.352941,2.117647 1.058823,2.87647 0.705883,0.758824 1.517648,1.129412 2.435295,1.129412 1.552941,0 2.611764,-0.688235 3.211764,-2.082353 l 1.852941,0.794118 c -0.370588,0.9 -0.988235,1.658823 -1.817647,2.27647 -0.847058,0.6 -1.870588,0.9 -3.105882,0.9 z"
           id="path4735" />
        <path
           d="M 56.294118,0.42352941 V 5.5235294 l -0.08824,1.5352941 h 0.08824 c 0.3,-0.5294117 0.77647,-0.9705882 1.429411,-1.3411764 0.652942,-0.3705883 1.341177,-0.5470589 2.082353,-0.5470589 1.376471,0 2.417647,0.4235294 3.141177,1.2705883 0.723529,0.8470588 1.07647,1.9764706 1.07647,3.3882353 v 6.7588232 h -2.082353 v -6.458823 c 0,-2.0470591 -0.917647,-3.0705885 -2.735294,-3.0705885 -0.864705,0 -1.552941,0.3352941 -2.1,1.0235294 -0.547058,0.6882353 -0.811764,1.482353 -0.811764,2.3823531 v 6.123529 H 54.211765 V 0.42352941 Z"
           id="path4737" />
      </g>
      <g
         id="XMLID_39_"
         transform="matrix(0.50653307,0,0,0.50653307,34.387637,25.71855)"
         fill="#616161">
        <path
           d="m 8.5411765,16.941176 c -2.382353,0 -4.3764706,-0.811764 -5.982353,-2.417647 -1.60588232,-1.605882 -2.41764703,-3.617647 -2.41764703,-6.0352937 0,-2.4176471 0.81176471,-4.4117647 2.41764703,-6.0352941 1.6058824,-1.60588238 3.6,-2.41764708 5.982353,-2.41764708 2.4352945,0 4.4117645,0.88235294 5.9470585,2.64705878 L 13.041177,4.0764706 C 11.947059,2.7 10.447059,2.0294118 8.5411765,2.0294118 c -1.7647059,0 -3.2470589,0.6 -4.4647059,1.7823529 -1.2176471,1.1823529 -1.8176471,2.7529412 -1.8176471,4.6764706 0,1.9235297 0.6,3.4941177 1.8176471,4.6764707 1.217647,1.182353 2.7,1.782353 4.4647059,1.782353 1.9411765,0 3.6000005,-0.776471 4.9764705,-2.347059 l 1.447059,1.447059 c -0.741177,0.882353 -1.658824,1.588235 -2.770588,2.117647 -1.129412,0.529412 -2.3470592,0.77647 -3.6529415,0.77647 z"
           id="path4740" />
        <path
           d="M 17.364706,6.8470588 C 18.441176,5.7176471 19.8,5.1705882 21.458823,5.1705882 c 1.658824,0 3.017648,0.5647059 4.094118,1.6764706 1.076471,1.1294118 1.605882,2.5235294 1.605882,4.2176472 0,1.694118 -0.529411,3.088235 -1.605882,4.217647 -1.07647,1.129412 -2.435294,1.67647 -4.094118,1.67647 -1.658823,0 -3.017647,-0.564705 -4.094117,-1.67647 -1.076471,-1.129412 -1.605882,-2.523529 -1.605882,-4.217647 0,-1.6941178 0.529411,-3.1058825 1.605882,-4.2176472 z M 18.9,13.958823 c 0.723529,0.72353 1.570588,1.094118 2.541176,1.094118 0.970589,0 1.817647,-0.370588 2.541177,-1.094118 0.723529,-0.723529 1.07647,-1.694117 1.07647,-2.894117 0,-1.2000001 -0.352941,-2.1705883 -1.07647,-2.8941178 -0.72353,-0.7235294 -1.570588,-1.0941176 -2.541177,-1.0941176 -0.970588,0 -1.817647,0.3705882 -2.541176,1.0941176 -0.723529,0.7235295 -1.076471,1.6941177 -1.076471,2.8941178 0.01765,1.2 0.370589,2.152941 1.076471,2.894117 z"
           id="path4742" />
        <path
           d="m 30.6,5.5235294 v 1.5352941 h 0.08823 c 0.3,-0.5294117 0.776471,-0.9705882 1.429412,-1.3411764 C 32.770588,5.3470588 33.458823,5.1705882 34.2,5.1705882 c 1.376471,0 2.417647,0.4235294 3.141177,1.2705883 0.723529,0.8470588 1.07647,1.9764706 1.07647,3.3882353 v 6.7588232 h -2.082353 v -6.458823 c 0,-2.0470591 -0.917647,-3.0705885 -2.735294,-3.0705885 -0.864706,0 -1.552941,0.3352941 -2.1,1.0235294 -0.547059,0.6882353 -0.811765,1.482353 -0.811765,2.3823531 v 6.123529 H 28.605882 V 5.5235294 Z"
           id="path4744" />
        <path
           d="m 44.470588,16.941176 c -1.235294,0 -2.258823,-0.3 -3.052941,-0.9 -0.811765,-0.6 -1.394118,-1.358823 -1.764706,-2.258823 l 1.852941,-0.776471 c 0.582353,1.394118 1.588236,2.082353 3,2.082353 0.652941,0 1.182353,-0.141176 1.588236,-0.423529 0.405882,-0.282353 0.617647,-0.670588 0.617647,-1.129412 0,-0.723529 -0.511765,-1.217647 -1.517647,-1.464706 L 42.952941,11.523529 C 42.247059,11.347059 41.576471,10.994118 40.941176,10.5 40.305882,9.9882353 39.988235,9.3176471 39.988235,8.4529412 c 0,-0.9705883 0.441177,-1.7647059 1.305883,-2.382353 0.864705,-0.617647 1.888235,-0.917647 3.088235,-0.917647 0.970588,0 1.852941,0.2294117 2.611765,0.6705882 0.77647,0.4411765 1.323529,1.0764706 1.641176,1.9058824 l -1.8,0.7411764 C 46.429412,7.5 45.582353,7.0058823 44.311765,7.0058823 c -0.617647,0 -1.129412,0.1235295 -1.552942,0.3882353 -0.423529,0.2647059 -0.635294,0.6 -0.635294,1.0411765 0,0.6352941 0.494118,1.0588236 1.464706,1.2882353 l 2.188236,0.5117646 c 1.041176,0.247059 1.8,0.652941 2.311764,1.235294 0.494118,0.582353 0.741177,1.252941 0.741177,1.994118 0,0.988235 -0.405883,1.817647 -1.217647,2.488235 -0.811765,0.670588 -1.870588,0.988235 -3.141177,0.988235 z"
           id="path4746" />
        <path
           d="m 51.211765,6.8470588 c 1.07647,-1.1294117 2.435294,-1.6764706 4.094117,-1.6764706 1.658824,0 3.017647,0.5647059 4.094118,1.6764706 1.076471,1.1294118 1.605882,2.5235294 1.605882,4.2176472 0,1.694118 -0.529411,3.088235 -1.605882,4.217647 -1.076471,1.129412 -2.435294,1.67647 -4.094118,1.67647 -1.658823,0 -3.017647,-0.564705 -4.094117,-1.67647 -1.076471,-1.129412 -1.605883,-2.523529 -1.605883,-4.217647 0,-1.6941178 0.529412,-3.1058825 1.605883,-4.2176472 z m 1.552941,7.1117642 c 0.723529,0.72353 1.570588,1.094118 2.541176,1.094118 0.970589,0 1.817647,-0.370588 2.541177,-1.094118 0.723529,-0.723529 1.07647,-1.694117 1.07647,-2.894117 0,-1.2000001 -0.352941,-2.1705883 -1.07647,-2.8941178 -0.72353,-0.7235294 -1.570588,-1.0941176 -2.541177,-1.0941176 -0.970588,0 -1.817647,0.3705882 -2.541176,1.0941176 -0.72353,0.7235295 -1.076471,1.6941177 -1.076471,2.8941178 0,1.2 0.352941,2.152941 1.076471,2.894117 z"
           id="path4748" />
        <polygon
           id="polygon4750"
           points="62.488235,16.588235 62.488235,0.42352941 64.570588,0.42352941 64.570588,16.588235 " />
        <path
           d="m 71.717647,16.941176 c -1.67647,0 -3.035294,-0.564705 -4.076471,-1.67647 C 66.6,14.152941 66.070588,12.741177 66.070588,11.047059 c 0,-1.6058825 0.511765,-3.0000002 1.517647,-4.1647061 1.02353,-1.1647058 2.311765,-1.7470588 3.9,-1.7470588 1.641177,0 2.947059,0.5294118 3.935294,1.6058824 0.988236,1.0764706 1.482353,2.5058823 1.482353,4.2882355 l -0.01765,0.388235 h -8.735294 c 0.05294,1.111765 0.441177,1.994118 1.111765,2.647059 0.688235,0.652941 1.482353,0.970588 2.4,0.970588 1.482353,0 2.505882,-0.635294 3.035294,-1.905882 l 1.852941,0.77647 C 76.2,14.770588 75.6,15.476471 74.770588,16.058823 c -0.829412,0.6 -1.852941,0.882353 -3.052941,0.882353 z M 74.7,9.7235294 c -0.05294,-0.6352941 -0.335294,-1.2352941 -0.864706,-1.8 -0.529412,-0.5647059 -1.323529,-0.8647059 -2.382353,-0.8647059 -0.77647,0 -1.429412,0.2470588 -1.994118,0.7235294 -0.564705,0.4764706 -0.952941,1.1294118 -1.164705,1.9411765 z"
           id="path4752" />
      </g>
      <g
         id="XMLID_37_">
        <path
           d="m 0.12352941,9.2823529 c 0,-5.1 4.28823529,-9.26470584 9.40588239,-9.26470584 2.8235292,0 4.8352942,1.11176474 6.3529412,2.55882354 L 14.1,4.3588235 c -1.076471,-1.0235294 -2.558823,-1.8 -4.5705882,-1.8 -3.7235295,0 -6.6352941,3 -6.6352941,6.7235294 0,3.7235291 2.9117646,6.7235291 6.6352941,6.7235291 2.4176472,0 3.7941172,-0.970588 4.6764702,-1.852941 0.72353,-0.723529 1.2,-1.764706 1.376471,-3.17647 H 9.5294118 V 8.4529412 h 8.5235292 c 0.08824,0.4588235 0.141177,0.9882353 0.141177,1.5882358 0,1.905882 -0.511765,4.252941 -2.188236,5.911764 C 14.382353,17.647059 12.3,18.547059 9.5470588,18.547059 4.4117647,18.529412 0.12352941,14.382353 0.12352941,9.2823529 Z"
           id="path4755"
           fill="#4285f4" />
        <path
           d="m 25.058823,6.6176471 c -3.3,0 -5.982352,2.5058823 -5.982352,5.9647059 0,3.441176 2.682352,5.964706 5.982352,5.964706 3.3,0 5.982353,-2.52353 5.982353,-5.964706 0,-3.4588236 -2.682353,-5.9647059 -5.982353,-5.9647059 z m 0,9.5647059 c -1.8,0 -3.370588,-1.482353 -3.370588,-3.617647 0,-2.152941 1.552942,-3.6176472 3.370588,-3.6176472 1.8,0 3.370589,1.4647062 3.370589,3.6176472 0,2.135294 -1.570589,3.617647 -3.370589,3.617647 z"
           id="path4757"
           fill="#db4437" />
        <path
           d="m 38.117647,6.6176471 c -3.3,0 -5.982353,2.5058823 -5.982353,5.9647059 0,3.441176 2.682353,5.964706 5.982353,5.964706 3.3,0 5.982353,-2.52353 5.982353,-5.964706 0,-3.4588236 -2.682353,-5.9647059 -5.982353,-5.9647059 z m 0,9.5647059 c -1.8,0 -3.370588,-1.482353 -3.370588,-3.617647 0,-2.152941 1.552941,-3.6176472 3.370588,-3.6176472 1.817647,0 3.370588,1.4647062 3.370588,3.6176472 0,2.135294 -1.570588,3.617647 -3.370588,3.617647 z"
           id="path4759"
           fill="#f4b400" />
        <path
           d="m 54.141176,6.9705882 v 0.9705883 h -0.08824 C 53.470588,7.2352941 52.341177,6.6 50.911765,6.6 c -2.982353,0 -5.717647,2.6117647 -5.717647,5.982353 0,3.335294 2.735294,5.947059 5.717647,5.947059 1.429412,0 2.558823,-0.635294 3.141176,-1.358824 h 0.08824 v 0.864706 c 0,2.276471 -1.217647,3.494118 -3.17647,3.494118 -1.605883,0 -2.594118,-1.147059 -3,-2.117647 l -2.276471,0.952941 c 0.652942,1.588235 2.4,3.529412 5.294118,3.529412 3.070588,0 5.664706,-1.8 5.664706,-6.211765 V 6.9705882 Z m -3,9.2117648 c -1.799999,0 -3.317647,-1.517647 -3.317647,-3.6 0,-2.1 1.517648,-3.6352942 3.317647,-3.6352942 1.782353,0 3.176471,1.5352942 3.176471,3.6352942 0.01765,2.1 -1.394118,3.6 -3.176471,3.6 z"
           id="path4761"
           fill="#4285f4" />
        <rect
           id="Rectangle-path"
           fill="#0f9d58"
           x="58.44706"
           y="0.65294117"
           width="2.6117647"
           height="17.523529" />
        <path
           d="m 68.241176,16.182353 c -1.341176,0 -2.27647,-0.617647 -2.894117,-1.8 l 7.97647,-3.3 -0.264705,-0.670588 C 72.564706,9.0705882 71.047059,6.6176471 67.958823,6.6176471 c -3.070588,0 -5.629411,2.417647 -5.629411,5.9647059 0,3.335294 2.523529,5.964706 5.911764,5.964706 2.735295,0 4.305883,-1.676471 4.976471,-2.647059 L 71.188235,14.541177 C 70.5,15.529412 69.582353,16.182353 68.241176,16.182353 Z M 68.047059,8.9117647 c 1.041176,0 1.923529,0.5117647 2.205882,1.2705883 l -5.329412,2.205882 c -0.07059,-2.294117 1.782353,-3.4764703 3.12353,-3.4764703 z"
           id="path4764"
           fill="#db4437" />
      </g>
      <path
         d="m -29.845423,1.9766538 2.826394,-2.82639455 V 4.5461043 h -2.826394 z m 16.701426,0 -2.826395,-2.82639455 V 4.5461043 h 2.826395 z"
         fill="#7b7b7b"
         fill-rule="evenodd"
         id="path4971"
         style="stroke-width:0.128472" />
      <path
         d="m -27.019029,-0.84974075 h 11.048637 V 1.848181 h -11.048637 z"
         fill="#5a5a5a"
         id="path4973"
         style="stroke-width:0.128472" />
      <g
         fill-rule="evenodd"
         id="g4981"
         transform="matrix(0.12847252,0,0,0.12847252,-40.508643,-0.84974075)">
        <path
           d="M 272,264 H 24 A 24,24 0 0 1 0,240 V 83.238 L 41.238,42 H 254.762 L 296,83.238 V 240 a 24,24 0 0 1 -24,24 z"
           fill="#e6e7e8"
           id="path4975" />
        <path
           d="M 0,127 V 83.238 L 41.238,42 H 254.762 L 296,83.238 V 127 Z"
           fill="#d0d1d2"
           id="path4977" />
        <path
           d="M 34,264 V 94 A 10,10 0 0 1 44,84 h 208 a 10,10 0 0 1 10,10 v 170 z"
           fill="#458cf5"
           id="path4979" />
      </g>
      <path
         d="M -36.140577,15.466268 H -6.8488438 V 33.067002 H -36.140577 Z"
         fill="#ffffff"
         id="path4983"
         style="stroke-width:0.128472" />
      <path
         d="M -15.584974,33.067002 V 27.79963 l -2.569451,-2.569451 -1.670143,-4.62501 1.156254,-2.954868 6.552097,6.552098 1.156253,-4.881955 4.1111202,4.11112 v 9.635438 z"
         fill="#d2d3d4"
         fill-rule="evenodd"
         id="path4985"
         style="stroke-width:0.128472" />
      <path
         d="m -34.213489,17.521828 h 9.763911 v 10.920164 h -9.763911 z m 0,13.361142 h 12.590307 v 2.184032 h -12.590307 z"
         fill="#d2d3d4"
         id="path4987"
         style="stroke-width:0.128472" />
      <path
         d="m -13.143997,28.968729 v 4.098273 h -5.395845 v -4.040074 a 6.3602888,6.3602888 0 0 1 -0.128472,-11.51769 v 6.050799 l 2.697922,1.670142 2.826395,-1.670142 v -6.051055 a 6.361702,6.361702 0 0 1 0,11.459747 z"
         fill="#505050"
         fill-rule="evenodd"
         id="path4989"
         style="stroke-width:0.128472" />
      <path
         d="m -33.121473,11.355148 a 1.0920164,1.0920164 0 1 1 -1.092016,1.092017 1.0920164,1.0920164 0 0 1 1.092016,-1.092017 z m 3.211814,0 a 1.0920164,1.0920164 0 1 1 -1.092017,1.092017 1.0920164,1.0920164 0 0 1 1.092017,-1.092017 z"
         fill="#e6e7e8"
         fill-rule="evenodd"
         id="path4991"
         style="stroke-width:0.128472" />
    </g>
  </g>
  <metadata
     id="metadata4773">
    <rdf:RDF>
      <cc:Work
         rdf:about="">
        <dc:title>Artboard</dc:title>
      </cc:Work>
    </rdf:RDF>
  </metadata>
</svg>
