<?xml version="1.0" encoding="UTF-8" standalone="no"?>
<!-- Created with Inkscape (http://www.inkscape.org/) -->

<svg
   width="95.973373mm"
   height="135.46666mm"
   viewBox="0 0 95.973373 135.46666"
   version="1.1"
   id="svg1022"
   inkscape:version="1.1.2 (0a00cf5339, 2022-02-04)"
   sodipodi:docname="html-logo.svg"
   xmlns:inkscape="http://www.inkscape.org/namespaces/inkscape"
   xmlns:sodipodi="http://sodipodi.sourceforge.net/DTD/sodipodi-0.dtd"
   xmlns="http://www.w3.org/2000/svg"
   xmlns:svg="http://www.w3.org/2000/svg">
  <sodipodi:namedview
     id="namedview1024"
     pagecolor="#ffffff"
     bordercolor="#666666"
     borderopacity="1.0"
     inkscape:pageshadow="2"
     inkscape:pageopacity="0.0"
     inkscape:pagecheckerboard="0"
     inkscape:document-units="mm"
     showgrid="false"
     fit-margin-top="0"
     fit-margin-left="0"
     fit-margin-right="0"
     fit-margin-bottom="0"
     inkscape:zoom="0.16"
     inkscape:cx="-56.25"
     inkscape:cy="765.625"
     inkscape:window-width="1158"
     inkscape:window-height="1226"
     inkscape:window-x="1050"
     inkscape:window-y="31"
     inkscape:window-maximized="0"
     inkscape:current-layer="layer1" />
  <defs
     id="defs1019" />
  <g
     inkscape:label="Layer 1"
     inkscape:groupmode="layer"
     id="layer1"
     transform="translate(-4.9299827,-64.558334)">
    <g
       id="g3054"
       transform="matrix(0.26458333,0,0,0.26458333,-14.816665,64.558334)">
      <polygon
         id="polygon3028"
         points="107.644,470.877 74.633,100.62 437.367,100.62 404.321,470.819 255.778,512 "
         style="fill:#e44d26" />
      <polygon
         id="polygon3030"
         points="256,480.523 376.03,447.246 404.27,130.894 256,130.894 "
         style="fill:#f16529" />
      <polygon
         id="polygon3032"
         points="256,268.217 195.91,268.217 191.76,221.716 256,221.716 256,176.305 255.843,176.305 142.132,176.305 143.219,188.488 154.38,313.627 256,313.627 "
         style="fill:#ebebeb" />
      <polygon
         id="polygon3034"
         points="205.227,372.55 201.994,336.333 177.419,336.333 156.409,336.333 162.771,407.634 255.791,433.457 256,433.399 256,386.153 255.801,386.206 "
         style="fill:#ebebeb" />
      <path
         id="path3036"
         d="m 108.382,0 h 23.077 v 22.8 h 21.11 V 0 h 23.078 V 69.044 H 152.57 v -23.12 h -21.11 v 23.12 H 108.383 V 0 Z"
         inkscape:connector-curvature="0"
         style="fill:#ffffff" />
      <path
         id="path3038"
         d="M 205.994,22.896 H 185.678 V 0 h 63.72 V 22.896 H 229.073 V 69.044 H 205.995 V 22.896 Z"
         inkscape:connector-curvature="0"
         style="fill:#ffffff" />
      <path
         id="path3040"
         d="m 259.511,0 h 24.063 L 298.376,24.26 313.163,0 h 24.072 V 69.044 H 314.253 V 34.822 l -15.877,24.549 h -0.397 L 282.091,34.822 v 34.222 h -22.58 z"
         inkscape:connector-curvature="0"
         style="fill:#ffffff" />
      <path
         id="path3042"
         d="m 348.72,0 h 23.084 v 46.222 h 32.453 V 69.044 H 348.72 Z"
         inkscape:connector-curvature="0"
         style="fill:#ffffff" />
      <polygon
         id="polygon3044"
         points="361.399,268.217 349.162,268.217 255.843,268.217 255.843,313.627 311.761,313.627 306.49,372.521 255.843,386.191 255.843,433.435 348.937,407.634 349.62,399.962 360.291,280.411 "
         style="fill:#ffffff" />
      <polygon
         id="polygon3046"
         points="255.843,176.305 255.843,204.509 255.843,221.605 255.843,221.716 365.385,221.716 365.531,221.716 366.442,211.509 368.511,188.488 369.597,176.305 "
         style="fill:#ffffff" />
    </g>
  </g>
</svg>
