<?xml version="1.0" encoding="UTF-8" standalone="no"?>
<!-- Generator: Adobe Illustrator 19.2.1, SVG Export Plug-In . SVG Version: 6.00 Build 0)  -->

<svg
   version="1.1"
   id="layer"
   x="0px"
   y="0px"
   viewBox="0 0 652 652"
   style="enable-background:new 0 0 652 652;"
   xml:space="preserve"
   sodipodi:docname="meredith-logo.svg"
   inkscape:version="1.1.2 (0a00cf5339, 2022-02-04)"
   xmlns:inkscape="http://www.inkscape.org/namespaces/inkscape"
   xmlns:sodipodi="http://sodipodi.sourceforge.net/DTD/sodipodi-0.dtd"
   xmlns="http://www.w3.org/2000/svg"
   xmlns:svg="http://www.w3.org/2000/svg"><defs
   id="defs65" /><sodipodi:namedview
   id="namedview63"
   pagecolor="#ffffff"
   bordercolor="#666666"
   borderopacity="1.0"
   inkscape:pageshadow="2"
   inkscape:pageopacity="0.0"
   inkscape:pagecheckerboard="0"
   showgrid="false"
   inkscape:zoom="0.30866564"
   inkscape:cx="314.2559"
   inkscape:cy="850.43478"
   inkscape:window-width="1158"
   inkscape:window-height="1226"
   inkscape:window-x="1050"
   inkscape:window-y="31"
   inkscape:window-maximized="0"
   inkscape:current-layer="layer" />
<style
   type="text/css"
   id="style2">
	.st0{fill:#695E4A;}
	.st1{fill:#009BDA;}
	.st2{fill:#6FBE44;}
	.st3{fill:#F7901E;}
	.st4{fill:#ED174C;}
	.st5{fill:#583357;}
	.st6{fill:#BF272E;}
	.st7{fill:#008F4C;}
	.st8{fill:#7A783E;}
	.st9{fill:#443639;}
	.st10{fill:#803136;}
	.st11{fill:#5A3438;}
	.st12{fill:#2B6442;}
</style>
<path
   class="st0"
   d="m 201.2,581.8 v -0.2 c 0,-15.6 11,-28.4 26.6,-28.4 17.3,0 26.1,13.6 26.1,29.3 0,1.1 -0.1,2.3 -0.2,3.5 h -40 c 1.3,8.9 7.6,13.8 15.7,13.8 6.1,0 10.4,-2.3 14.8,-6.5 l 7.3,6.5 c -5.3,6.2 -12.4,10.2 -22.4,10.2 -15.8,0 -27.9,-11.4 -27.9,-28.2 z m 40.3,-4 c -0.8,-8 -5.6,-14.3 -13.8,-14.3 -7.6,0 -13,5.9 -14.1,14.3 z m 58.8,4 v -0.2 c 0,-15.6 11,-28.4 26.6,-28.4 17.3,0 26.1,13.6 26.1,29.3 0,1.1 -0.1,2.3 -0.2,3.5 h -40 c 1.3,8.9 7.6,13.8 15.7,13.8 6.1,0 10.4,-2.3 14.8,-6.5 l 7.3,6.5 c -5.2,6.2 -12.3,10.2 -22.3,10.2 -15.8,0 -28,-11.4 -28,-28.2 z m 40.3,-4 c -0.8,-8 -5.6,-14.3 -13.8,-14.3 -7.6,0 -13,5.9 -14.1,14.3 z m 19.4,3.9 v -0.2 c 0,-18 12.3,-28.2 25.3,-28.2 12.2,0 17.9,6.7 18.6,7.3 v -27 h 12.5 v 75.2 h -12.5 v -6.3 c -1,1 -6.6,7.4 -18.6,7.4 -12.8,0 -25.3,-10.2 -25.3,-28.2 z m 44.1,0 v -0.2 c 0,-10.5 -7.4,-17.4 -15.8,-17.4 -8.6,0 -15.7,6.6 -15.7,17.4 v 0.2 c 0,10.5 7.2,17.4 15.7,17.4 8.3,0 15.8,-7 15.8,-17.4 z m 79.4,28.2 c -16,0 -24.9,-5 -24.9,-20.3 v -56 h 12.5 v 20.7 h 12.4 V 565 h -12.4 v 23.3 c 0,10 5.9,10.8 12.4,10.8 z m 11,-76.3 H 507 v 27 c 0.7,-0.9 5.5,-7.4 15.6,-7.4 13.1,0 20.8,8.7 20.8,20.9 v 34.7 H 530.9 V 578 c 0,-8.2 -4.5,-13.4 -12,-13.4 -7.2,0 -12,5 -12,13.4 v 30.8 h -12.5 z"
   id="path4"
   style="fill:#b4a796;fill-opacity:1" />
<polygon
   class="st0"
   points="509.2,348.8 509.2,294.4 521.6,294.4 521.6,335.1 521.6,348.8 "
   id="polygon6"
   transform="translate(-77.9,260)"
   style="fill:#b4a796;fill-opacity:1" />
<polygon
   class="st0"
   points="521.5,273.6 521.5,281.1 521.5,285.9 509.2,285.9 509.2,273.6 "
   id="polygon8"
   transform="translate(-77.9,260)"
   style="fill:#b4a796;fill-opacity:1" />
<path
   class="st0"
   d="m 108.6,554.4 h 12.5 v 6.5 c 0.6,-0.7 6.1,-7.6 16.1,-7.6 11.3,0 15.4,7 16.7,9.6 0.9,-1.5 6.2,-9.6 17.2,-9.6 11.9,0 20.4,8.7 20.4,20.8 v 34.8 H 179 V 578 c 0,-8.3 -4.3,-13.4 -11.3,-13.4 -6.8,0 -11.3,4.9 -11.3,13.4 v 30.8 H 143.9 V 578 c 0,-8.5 -4.4,-13.4 -11.3,-13.4 -6.9,0 -11.3,5 -11.3,13.4 v 30.8 h -12.5 z m 155.7,0 h 12.5 v 8.8 c 1.1,-1.8 5.3,-9.9 19.3,-9.9 v 12.8 h -2.7 c -10.8,0 -16.6,6.9 -16.6,17.1 v 25.6 h -12.5 z"
   id="path10"
   style="fill:#b4a796;fill-opacity:1" />
<rect
   x="63.931442"
   y="286.26187"
   transform="rotate(-45)"
   class="st1"
   width="67.536545"
   height="43.101212"
   id="rect12"
   style="stroke-width:3.39379" />
<polygon
   class="st1"
   points="113.3,335.7 122.3,344.7 136.4,330.6 127.4,321.6 "
   id="polygon14"
   transform="matrix(3.3938288,0,0,3.3938288,19.815987,-825.39466)" />
<path
   class="st1"
   d="m 380.91937,84.8302 c 13.57531,-13.57531 34.61705,-13.23593 47.85298,0 13.9147,13.9147 12.55717,35.29582 0,47.85299 l -24.43556,24.43557 30.54445,30.54445 24.43557,-24.43556 v 0 c 14.93285,-14.93285 36.31397,-11.53902 47.85299,0 14.59346,14.59346 11.8784,35.97458 0,47.85298 l -24.43557,24.43557 30.54446,30.54446 24.43557,-24.43557 c 30.88384,-30.88384 29.52631,-79.41559 0,-108.9419 -20.36298,-20.36297 -44.45916,-22.73865 -55.6588,-22.39927 0.33939,-11.19964 -2.37568,-35.6352 -22.39927,-55.65879 -28.84754,-28.847548 -77.71867,-31.223228 -108.9419,0 l -24.43557,24.43556 30.54446,30.54446 z"
   id="path16"
   style="stroke-width:3.39383" />
<polygon
   class="st1"
   points="104.3,298.5 104.3,298.5 90.2,312.6 99.2,321.6 113.3,307.5 104.3,298.5 "
   id="polygon18"
   transform="matrix(3.3938288,0,0,3.3938288,19.815987,-825.39466)" />
<polygon
   class="st2"
   points="67.1,353.7 81.2,367.7 90.2,358.7 76.1,344.7 "
   id="polygon20"
   transform="matrix(3.3938288,0,0,3.3938288,19.815987,-825.39466)" />
<path
   class="st2"
   d="m 513.27869,266.06066 -30.54446,30.54446 24.43557,24.43556 c 11.8784,11.87841 14.59346,33.25953 0,47.85299 -11.53902,11.53902 -32.92014,14.93285 -47.85299,0 v 0 l -24.43557,-24.43557 -30.54445,30.54446 24.43556,24.43557 c 12.55717,12.55717 13.9147,33.93829 0,47.85298 -13.23593,13.23594 -34.27767,13.57532 -47.85298,0 l -24.43557,-24.43556 -30.54446,30.54446 24.43557,24.43556 c 31.22322,31.22323 80.09436,28.84755 108.9419,0 20.36297,-20.36297 23.07804,-44.45915 22.39927,-55.65879 11.19964,0.33938 35.29582,-2.0363 55.65879,-22.39927 29.52631,-29.52631 30.88385,-78.05806 0,-108.9419 z"
   id="path22"
   style="stroke-width:3.39383" />
<polygon
   class="st2"
   points="90.2,330.6 104.3,344.7 113.3,335.7 99.2,321.6 "
   id="polygon24"
   transform="matrix(3.3938288,0,0,3.3938288,19.815987,-825.39466)" />
<polygon
   class="st2"
   points="127.4,321.6 136.4,312.6 122.3,298.5 113.3,307.5 "
   id="polygon26"
   transform="matrix(3.3938288,0,0,3.3938288,19.815987,-825.39466)" />
<rect
   x="-46.737396"
   y="507.66425"
   transform="rotate(-45)"
   class="st3"
   width="67.536545"
   height="43.101212"
   id="rect28"
   style="stroke-width:3.39379" />
<path
   class="st3"
   d="m 270.95932,446.95173 c -11.87841,11.8784 -33.25953,14.59347 -47.85299,0 -11.53902,-11.53902 -14.93285,-32.92014 0,-47.85298 v 0 l 24.43557,-24.43557 -30.54446,-30.54446 v 0 0 l -24.43557,24.43557 c -12.55717,12.55716 -33.93829,13.9147 -47.85298,0 -13.23594,-13.23593 -13.57532,-34.27767 0,-47.85299 l 24.43556,-24.43557 -30.54446,-30.54445 -24.43556,24.43556 c -31.223228,31.22323 -28.847548,80.09436 0,108.94191 20.36297,20.36297 44.45915,23.07803 55.65879,22.39927 -0.33938,11.19963 2.0363,35.29582 22.39927,55.65879 29.52631,29.52631 78.05806,30.88384 108.9419,0 l 24.43557,-24.43557 -30.54446,-30.54446 z"
   id="path30"
   style="stroke-width:3.39383" />
<polygon
   class="st3"
   points="67.1,335.7 76.1,344.7 90.2,330.6 81.2,321.6 "
   id="polygon32"
   transform="matrix(3.3938288,0,0,3.3938288,19.815987,-825.39466)" />
<polygon
   class="st3"
   points="58.2,298.5 44.1,312.6 53.1,321.6 67.1,307.5 "
   id="polygon34"
   transform="matrix(3.3938288,0,0,3.3938288,19.815987,-825.39466)" />
<polygon
   class="st4"
   points="67.1,335.7 53.1,321.6 44.1,330.6 58.2,344.7 "
   id="polygon36"
   transform="matrix(3.3938288,0,0,3.3938288,19.815987,-825.39466)" />
<path
   class="st4"
   d="m 145.04827,211.08063 c -13.57532,-13.57531 -13.23593,-34.61705 0,-47.85298 13.9147,-13.9147 35.29582,-12.55717 47.85298,0 l 24.43557,24.43556 30.54446,-30.54445 -24.43557,-24.43557 v 0 c -14.93284,-14.93285 -11.53902,-36.31397 0,-47.85299 14.59347,-14.59346 35.97459,-11.8784 47.85299,0 l 24.43557,24.43557 30.54445,-30.54446 -24.43556,-24.43557 c -30.88384,-30.883838 -79.4156,-29.526306 -108.94191,0 -20.36297,20.36298 -22.73865,44.45916 -22.39927,55.6588 -11.19963,-0.33939 -35.6352,2.37568 -55.65879,22.39927 -28.847542,28.84754 -31.223222,77.71867 0,108.9419 l 24.43557,24.43557 30.54446,-30.54446 z"
   id="path38"
   style="stroke-width:3.39383" />
<rect
   x="131.61478"
   y="329.42432"
   transform="rotate(-45)"
   class="st4"
   width="43.101212"
   height="67.536545"
   id="rect40"
   style="stroke-width:3.39379" />
<polygon
   class="st4"
   points="81.2,321.6 90.2,312.6 76.1,298.5 67.1,307.5 "
   id="polygon42"
   transform="matrix(3.3938288,0,0,3.3938288,19.815987,-825.39466)" />
<rect
   x="131.74844"
   y="286.41669"
   transform="rotate(-45)"
   class="st5"
   width="43.101212"
   height="43.101212"
   id="rect44"
   style="stroke-width:3.39379" />
<rect
   x="-89.941048"
   y="286.19763"
   transform="rotate(-45)"
   class="st6"
   width="43.101212"
   height="43.101212"
   id="rect46"
   style="stroke-width:3.39379" />
<rect
   x="131.51164"
   y="507.75714"
   transform="rotate(-45)"
   class="st7"
   width="43.101212"
   height="43.101212"
   id="rect48"
   style="stroke-width:3.39379" />
<rect
   x="-89.797447"
   y="507.8407"
   transform="rotate(-45)"
   class="st8"
   width="43.101212"
   height="43.101212"
   id="rect50"
   style="stroke-width:3.39379" />
<rect
   x="131.47319"
   y="396.89789"
   transform="rotate(-45)"
   class="st9"
   width="43.101212"
   height="43.101212"
   id="rect52"
   style="stroke-width:3.39379" />
<rect
   x="-89.833496"
   y="397.0256"
   transform="rotate(-45)"
   class="st10"
   width="43.101212"
   height="43.101212"
   id="rect54"
   style="stroke-width:3.39379" />
<rect
   x="20.895176"
   y="286.11697"
   transform="rotate(-45)"
   class="st11"
   width="43.101212"
   height="43.101212"
   id="rect56"
   style="stroke-width:3.39379" />
<rect
   x="20.971785"
   y="396.95197"
   transform="rotate(-45)"
   class="st9"
   width="43.101212"
   height="43.101212"
   id="rect58"
   style="stroke-width:3.39379" />
<rect
   x="21.026302"
   y="507.82343"
   transform="rotate(-45)"
   class="st12"
   width="43.101212"
   height="43.101212"
   id="rect60"
   style="stroke-width:3.39379" />
</svg>
