<?xml version="1.0" encoding="UTF-8" standalone="no"?>
<svg
   width="512"
   height="100"
   viewBox="0 0 512 100"
   version="1.1"
   preserveAspectRatio="xMidYMid"
   id="svg80"
   sodipodi:docname="prerender-logo.svg"
   inkscape:version="1.1.2 (0a00cf5339, 2022-02-04)"
   xmlns:inkscape="http://www.inkscape.org/namespaces/inkscape"
   xmlns:sodipodi="http://sodipodi.sourceforge.net/DTD/sodipodi-0.dtd"
   xmlns="http://www.w3.org/2000/svg"
   xmlns:svg="http://www.w3.org/2000/svg"
   xmlns:rdf="http://www.w3.org/1999/02/22-rdf-syntax-ns#"
   xmlns:cc="http://creativecommons.org/ns#"
   xmlns:dc="http://purl.org/dc/elements/1.1/">
  <defs
     id="defs84" />
  <sodipodi:namedview
     id="namedview82"
     pagecolor="#ffffff"
     bordercolor="#666666"
     borderopacity="1.0"
     inkscape:pageshadow="2"
     inkscape:pageopacity="0.0"
     inkscape:pagecheckerboard="0"
     showgrid="false"
     fit-margin-top="0"
     fit-margin-left="0"
     fit-margin-right="0"
     fit-margin-bottom="0"
     inkscape:zoom="0.3930664"
     inkscape:cx="269.67454"
     inkscape:cy="-3.8161491"
     inkscape:window-width="1158"
     inkscape:window-height="1226"
     inkscape:window-x="1050"
     inkscape:window-y="31"
     inkscape:window-maximized="0"
     inkscape:current-layer="g78" />
  <title
     id="title64">prerender</title>
  <g
     id="g78">
    <path
       d="m 147.4437,35.781684 c 2.26659,0 4.38552,0.222612 6.35905,0.667085 1.97277,0.444473 3.6937,1.185012 5.16353,2.220867 1.46834,1.038104 2.63311,2.412748 3.49358,4.126181 0.85971,1.713434 1.29069,3.818873 1.29069,6.315569 0,2.411998 -0.43098,4.506944 -1.29069,6.284087 -0.86122,1.777144 -2.02599,3.237984 -3.49433,4.379524 -1.46983,1.143787 -3.16977,1.99076 -5.09982,2.539419 -1.93155,0.550907 -3.98827,0.825985 -6.17016,0.825985 v 0 h -5.09983 v 14.027517 h -9.25524 V 35.781684 Z m 40.56625,0 c 2.18189,0 4.22812,0.212868 6.13868,0.634855 1.90981,0.424236 3.57827,1.133294 5.00538,2.127176 1.42636,0.99463 2.55966,2.316058 3.39988,3.96653 0.83873,1.650473 1.25922,3.704194 1.25922,6.157417 0,3.046853 -0.66109,5.554042 -1.98327,7.521567 -1.32142,1.967525 -3.09557,3.438859 -5.32018,4.411004 v 0 l 9.3182,16.567685 h -10.38854 l -7.8701,-14.916463 h -5.09982 v 14.916463 h -9.25524 V 35.781684 Z m 50.89706,7.5e-4 v 7.87085 h -16.43277 v 8.314573 h 13.9773 v 7.80714 h -13.9773 v 9.522071 h 17.06313 v 7.8716 H 213.219 V 35.782434 Z m 24.08026,-7.5e-4 c 2.18189,0 4.22812,0.212868 6.13793,0.634855 1.91056,0.424236 3.57977,1.133294 5.00688,2.127176 1.42561,0.99463 2.55891,2.316058 3.39913,3.96653 0.83873,1.650473 1.25922,3.704194 1.25922,6.157417 0,3.046853 -0.66034,5.554042 -1.98326,7.521567 -1.32293,1.967525 -3.09633,3.438859 -5.32019,4.411004 v 0 l 9.31895,16.567685 h -10.38854 l -7.8701,-14.916463 h -5.09982 v 14.916463 h -9.25599 V 35.781684 Z m 51.36627,7.5e-4 v 7.87085 h -16.43277 v 8.314573 h 13.9773 v 7.80714 h -13.9773 v 9.522071 h 17.06238 v 7.8716 H 288.66628 V 35.782434 Z m 19.26076,0 10.70333,20.565696 4.0295,9.13981 h 0.25184 c -0.20987,-2.199131 -0.45197,-4.653853 -0.72405,-7.362666 -0.27283,-2.707315 -0.40925,-5.289457 -0.40925,-7.744179 v 0 -14.598661 h 8.81452 v 41.385484 h -9.50708 l -10.70409,-20.629406 -4.02874,-9.013139 h -0.25184 c 0.20911,2.285327 0.45046,4.740049 0.72329,7.362666 0.27283,2.624866 0.41,5.163535 0.41,7.617508 v 0 14.663121 h -8.81451 V 35.782434 Z m 43.94739,0 c 3.14729,0 5.98127,0.402499 8.49971,1.205999 2.51768,0.804249 4.67933,2.042478 6.48421,3.713188 1.80413,1.672209 3.19001,3.797886 4.15466,6.380028 0.9654,2.581393 1.44885,5.649233 1.44885,9.20352 0,3.554287 -0.48345,6.643864 -1.44885,9.267231 -0.9654,2.624116 -2.3288,4.792516 -4.09245,6.506699 -1.76215,1.713433 -3.87134,2.993636 -6.32681,3.839859 -2.45547,0.846973 -5.19502,1.26971 -8.21639,1.26971 v 0 H 365.97615 V 35.782434 Z m 55.96241,0 v 7.87085 h -16.43352 v 8.314573 h 13.9773 v 7.80714 h -13.9773 v 9.522071 h 17.06312 v 7.8716 H 407.83609 V 35.782434 Z m 24.54871,-7.5e-4 c 2.18189,0 4.22812,0.212868 6.13868,0.634855 1.90981,0.424236 3.57827,1.133294 5.00539,2.127176 1.42636,0.99463 2.55965,2.316058 3.39988,3.96653 0.83948,1.650473 1.25996,3.704194 1.25996,6.157417 0,3.046853 -0.66108,5.554042 -1.98326,7.521567 -1.32218,1.967525 -3.09632,3.438859 -5.32094,4.411753 v 0 l 9.31895,16.566936 h -10.38853 l -7.8701,-14.916463 h -5.09983 v 14.916463 h -9.25523 V 35.781684 Z m -81.07852,7.554547 h -1.76365 v 26.27864 h 1.76365 c 1.7629,0 3.35791,-0.232356 4.78502,-0.698566 1.42636,-0.46471 2.64436,-1.215743 3.65248,-2.253097 1.00662,-1.036604 1.79363,-2.401505 2.36028,-4.094701 0.56665,-1.691696 0.84997,-3.786642 0.84997,-6.283338 0,-2.453972 -0.28332,-4.516688 -0.84997,-6.188897 -0.5659,-1.671459 -1.35291,-3.004129 -2.36028,-3.99876 -1.00812,-0.993881 -2.22612,-1.703689 -3.65248,-2.126426 -1.42786,-0.422737 -3.02212,-0.634855 -4.78502,-0.634855 z m 127.33897,3.956787 c 1.11756,-0.009 2.13992,0.197127 3.07159,0.615366 0.93167,0.41824 1.73817,1.020115 2.41949,1.804877 0.68208,0.784761 1.212,1.742665 1.59051,2.87446 0.37702,1.131796 0.57265,2.406002 0.58464,3.821121 0.0112,1.435357 -0.1634,2.73055 -0.52317,3.886331 -0.36053,1.15653 -0.87396,2.140667 -1.54329,2.953911 -0.66859,0.813993 -1.46534,1.442102 -2.38952,1.885826 -0.92342,0.443723 -1.94429,0.669333 -3.06034,0.678327 -1.11756,0.0097 -2.14142,-0.200125 -3.07234,-0.628109 -0.93092,-0.427983 -1.73367,-1.0441 -2.406,-1.84685 -0.67308,-0.802001 -1.19925,-1.777893 -1.57702,-2.928427 -0.37851,-1.149784 -0.57339,-2.442729 -0.58463,-3.877336 -0.012,-1.433857 0.16265,-2.719307 0.52242,-3.857848 0.35978,-1.137042 0.86946,-2.10394 1.53055,-2.899195 0.65959,-0.795255 1.45184,-1.405375 2.37602,-1.83036 0.92342,-0.424986 1.94429,-0.64235 3.06109,-0.652094 z m -11.3974,0.420488 0.14316,17.867376 -2.24185,0.01799 -0.14391,-17.867376 z m 11.41389,1.568773 c -0.79225,0.006 -1.50656,0.179888 -2.14366,0.520926 -0.63711,0.341037 -1.18277,0.822988 -1.63623,1.443601 -0.45422,0.621363 -0.80425,1.377642 -1.0486,2.269587 -0.2451,0.891195 -0.36353,1.891073 -0.35453,2.998883 0.009,1.125799 0.14241,2.13692 0.4025,3.033361 0.25859,0.897192 0.62136,1.666213 1.08532,2.306315 0.46471,0.6416 1.01787,1.131795 1.66022,1.471334 0.6416,0.339538 1.35815,0.506684 2.15191,0.499938 0.79151,-0.0067 1.50581,-0.184385 2.14292,-0.535166 0.6371,-0.350032 1.18276,-0.849222 1.63623,-1.498318 0.45421,-0.648346 0.8035,-1.422614 1.04859,-2.323553 0.2451,-0.900939 0.36353,-1.914308 0.35378,-3.039358 -0.009,-1.10706 -0.14241,-2.104689 -0.40175,-2.992886 -0.25933,-0.887448 -0.62136,-1.63848 -1.08532,-2.252348 -0.46396,-0.613868 -1.01787,-1.086074 -1.65947,-1.416618 -0.6416,-0.330544 -1.35965,-0.492444 -2.15191,-0.485698 z m -22.19893,5.632743 c 0.43248,-0.0037 0.80725,0.152156 1.12505,0.46696 0.31705,0.315553 0.4782,0.736041 0.4827,1.262214 0.005,0.490195 -0.14991,0.895692 -0.46246,1.215743 -0.31255,0.320051 -0.68507,0.482699 -1.11681,0.485697 -0.45046,0.0037 -0.83497,-0.152155 -1.15203,-0.466959 -0.3178,-0.314804 -0.47895,-0.718053 -0.4827,-1.208248 -0.004,-0.526172 0.14916,-0.949658 0.46246,-1.269709 0.31181,-0.320051 0.69257,-0.48195 1.14379,-0.485698 z M 146.87706,43.20881 h -4.28134 v 12.504465 h 4.53318 c 5.03686,0 7.55605,-2.19988 7.5553,-6.60114 0,-2.158656 -0.67159,-3.681708 -2.01475,-4.570654 -1.34391,-0.888197 -3.27471,-1.332671 -5.79239,-1.332671 z m 40.37811,0 h -4.78502 v 11.616268 h 4.78502 c 2.43373,0 4.29108,-0.517927 5.57203,-1.555281 1.27945,-1.036605 1.9203,-2.5709 1.9203,-4.602135 0,-2.031236 -0.6401,-3.448603 -1.9203,-4.252853 -1.28095,-0.803499 -3.1383,-1.205999 -5.57203,-1.205999 z m 74.97582,0 h -4.78502 v 11.616268 h 4.78502 c 2.43373,0 4.29108,-0.517927 5.57203,-1.555281 1.2802,-1.036605 1.92031,-2.5709 1.92031,-4.602135 0,-2.031236 -0.64011,-3.448603 -1.92031,-4.252853 -1.28095,-0.803499 -3.1383,-1.205999 -5.57203,-1.205999 z m 195.08629,0 h -4.78502 v 11.616268 h 4.78502 c 2.43374,0 4.29183,-0.517927 5.57278,-1.555281 1.27946,-1.036605 1.92031,-2.5709 1.92031,-4.602135 0,-2.031236 -0.64085,-3.448603 -1.92031,-4.252853 -1.28095,-0.803499 -3.13904,-1.205999 -5.57278,-1.205999 z"
       fill="#5d7b8c"
       id="path66"
       style="fill:#aab9c6;fill-opacity:1" />
    <g
       id="g76">
      <path
         d="m 26.983201,0 v 26.983201 h 13.4916 c 7.451111,0 13.491601,-6.040489 13.491601,-13.491601 V 0 Z"
         fill="#f0da50"
         id="path68" />
      <path
         d="M 13.4916,0 C 6.0404893,0 0,6.0404893 0,13.4916 v 53.966402 c 0,7.451111 6.0404893,13.4916 13.4916,13.4916 H 26.983201 V 0 Z"
         fill="#4bc69a"
         id="path70" />
      <path
         d="m 67.458002,53.966402 c -7.451111,0 -13.4916,6.040489 -13.4916,13.4916 v 13.4916 h 26.9832 v -26.9832 z"
         fill="#f0da50"
         id="path72" />
      <path
         d="M 94.441203,0 H 80.949602 v 80.949602 h 13.491601 c 7.451107,0 13.491597,-6.040489 13.491597,-13.4916 V 13.4916 C 107.9328,6.0404893 101.89231,0 94.441203,0 Z"
         fill="#5d7b8c"
         id="path74"
         style="fill:#859dad;fill-opacity:1" />
    </g>
  </g>
  <metadata
     id="metadata86">
    <rdf:RDF>
      <cc:Work
         rdf:about="">
        <dc:title>prerender</dc:title>
      </cc:Work>
    </rdf:RDF>
  </metadata>
</svg>
