<?xml version="1.0" encoding="UTF-8" standalone="no"?>
<!-- Generator: Adobe Illustrator 16.0.0, SVG Export Plug-In . SVG Version: 6.00 Build 0)  -->

<svg
   version="1.1"
   id="Layer_1"
   x="0px"
   y="0px"
   viewBox="0 0 2634.053 940"
   enable-background="new 0 0 3000 3000"
   xml:space="preserve"
   sodipodi:docname="cloudflare-logo.svg"
   width="2634.053"
   height="940"
   inkscape:version="1.1.2 (0a00cf5339, 2022-02-04)"
   xmlns:inkscape="http://www.inkscape.org/namespaces/inkscape"
   xmlns:sodipodi="http://sodipodi.sourceforge.net/DTD/sodipodi-0.dtd"
   xmlns="http://www.w3.org/2000/svg"
   xmlns:svg="http://www.w3.org/2000/svg"><defs
   id="defs37" /><sodipodi:namedview
   id="namedview35"
   pagecolor="#ffffff"
   bordercolor="#666666"
   borderopacity="1.0"
   inkscape:pageshadow="2"
   inkscape:pageopacity="0.0"
   inkscape:pagecheckerboard="0"
   showgrid="false"
   fit-margin-top="0"
   fit-margin-left="0"
   fit-margin-right="0"
   fit-margin-bottom="0"
   inkscape:zoom="0.08"
   inkscape:cx="1087.5"
   inkscape:cy="2668.75"
   inkscape:window-width="1158"
   inkscape:window-height="1226"
   inkscape:window-x="1050"
   inkscape:window-y="31"
   inkscape:window-maximized="0"
   inkscape:current-layer="g32" />
<g
   id="g32"
   transform="translate(-182.973,-1062.945)">
	<path
   fill="#404041"
   d="m 2794.67,1773.961 c -12.46,0 -22.356,-9.896 -22.356,-22.357 0,-12.094 9.896,-22.355 22.356,-22.355 12.095,0 22.356,9.895 22.356,22.355 0,12.095 -10.261,22.357 -22.356,22.357 m 0,-40.316 c -9.896,0 -17.958,8.064 -17.958,17.959 0,9.896 8.063,17.959 17.958,17.959 9.895,0 17.959,-8.063 17.959,-17.959 0,-9.895 -8.064,-17.959 -17.959,-17.959 m 11.361,29.687 h -5.131 l -4.397,-8.43 h -5.864 v 8.43 h -4.765 v -24.557 h 11.729 c 5.131,0 8.429,3.299 8.429,8.064 0,3.664 -2.198,6.23 -5.131,7.33 z m -8.795,-12.828 c 1.831,0 3.664,-1.1 3.664,-3.664 0,-2.932 -1.466,-3.666 -3.664,-3.666 h -7.331 v 7.33 z"
   id="path2"
   style="fill:#a3a3a4;fill-opacity:1" />
	<polygon
   fill="#404041"
   points="622.044,1882.813 622.044,1932.656 465.547,1932.656 465.547,1727.049 522.721,1727.049 522.721,1882.813 "
   id="polygon4"
   style="fill:#a3a3a4;fill-opacity:1" />
	<path
   fill="#404041"
   d="m 681.051,1830.402 v -0.734 c 0,-59.006 47.645,-107.018 111.05,-107.018 63.404,0 110.317,47.279 110.317,106.285 v 0.732 c 0,59.008 -47.645,107.02 -111.05,107.02 -63.405,0 -110.317,-47.279 -110.317,-106.285 m 163.459,0 v -0.734 c 0,-29.686 -21.257,-55.342 -52.776,-55.342 -31.152,0 -52.043,25.289 -52.043,54.977 v 0.732 c 0,29.688 21.258,55.342 52.411,55.342 31.518,0 52.408,-25.289 52.408,-54.975"
   id="path6"
   style="fill:#a3a3a4;fill-opacity:1" />
	<path
   fill="#404041"
   d="m 972.42,1842.496 v -115.447 h 57.907 v 114.348 c 0,29.688 15.026,43.615 37.75,43.615 22.724,0 37.75,-13.563 37.75,-42.148 V 1727.05 h 57.907 v 113.982 c 0,66.336 -37.75,95.289 -96.391,95.289 -58.273,-10e-4 -94.923,-29.319 -94.923,-93.825"
   id="path8"
   style="fill:#a3a3a4;fill-opacity:1" />
	<path
   fill="#404041"
   d="m 1250.962,1727.049 h 79.164 c 73.301,0 116.182,42.146 116.182,101.52 v 0.734 c 0,59.373 -43.248,103.354 -117.281,103.354 h -78.065 z m 80.264,155.029 c 34.085,0 56.808,-18.691 56.808,-52.043 v -0.732 c 0,-32.986 -22.723,-52.043 -56.808,-52.043 h -23.09 v 104.451 h 23.09 z"
   id="path10"
   style="fill:#a3a3a4;fill-opacity:1" />
	<polygon
   fill="#404041"
   points="1585.944,1859.355 1585.944,1932.656 1529.137,1932.656 1529.137,1727.049 1693.696,1727.049 1693.696,1776.893 1585.944,1776.893 1585.944,1812.076 1683.435,1812.076 1683.435,1859.355 "
   id="polygon12"
   style="fill:#a3a3a4;fill-opacity:1" />
	<polygon
   fill="#404041"
   points="1929.358,1882.813 1929.358,1932.656 1772.861,1932.656 1772.861,1727.049 1829.669,1727.049 1829.669,1882.813 "
   id="polygon14"
   style="fill:#a3a3a4;fill-opacity:1" />
	<path
   fill="#404041"
   d="m 2078.158,1725.582 h 54.976 l 87.594,207.074 h -61.207 l -15.025,-36.65 h -79.165 l -14.659,36.65 h -59.74 z m 50.21,126.078 -22.723,-58.275 -23.09,58.275 z"
   id="path16"
   style="fill:#a3a3a4;fill-opacity:1" />
	<path
   fill="#404041"
   d="m 2294.028,1727.049 h 97.122 c 31.521,0 53.144,8.063 67.07,22.355 12.095,11.729 18.325,27.488 18.325,48.012 v 0.734 c 0,31.52 -16.859,52.408 -42.148,63.037 l 49.112,71.836 h -65.97 l -41.416,-62.307 h -24.922 v 62.307 h -57.174 v -205.974 z m 94.558,98.588 c 19.424,0 30.419,-9.527 30.419,-24.189 v -0.732 c 0,-16.127 -11.729,-24.189 -30.786,-24.189 h -37.383 v 49.111 h 37.75 z"
   id="path18"
   style="fill:#a3a3a4;fill-opacity:1" />
	<polygon
   fill="#404041"
   points="2725.401,1884.277 2725.401,1932.656 2558.643,1932.656 2558.643,1727.049 2723.935,1727.049 2723.935,1775.426 2615.083,1775.426 2615.083,1806.578 2713.673,1806.578 2713.673,1851.66 2615.083,1851.66 2615.083,1884.277 "
   id="polygon20"
   style="fill:#a3a3a4;fill-opacity:1" />
	<path
   fill="#404041"
   d="m 340.936,1854.59 c -8.063,17.959 -24.922,30.787 -46.912,30.787 -31.153,0 -52.41,-26.021 -52.41,-55.342 v -0.732 c 0,-29.688 20.891,-54.977 52.043,-54.977 23.456,0 41.414,14.295 48.745,34.086 h 60.106 c -9.529,-49.111 -52.776,-85.395 -108.485,-85.395 -63.405,0 -111.05,48.012 -111.05,107.018 v 0.734 c 0,59.006 46.913,106.285 110.318,106.285 54.242,0 96.756,-35.184 107.751,-82.098 z"
   id="path22"
   style="fill:#a3a3a4;fill-opacity:1" />
	<g
   id="g30">
		<polygon
   fill="#ffffff"
   points="1828.936,1301.539 1828.936,1628.094 2656.499,1628.094 2656.499,1399.029 2499.269,1308.869 2472.147,1297.142 "
   id="polygon24" />
		<path
   fill="#f38020"
   d="m 2370.26,1598.039 c 7.697,-26.389 4.765,-50.576 -8.063,-68.535 -11.729,-16.492 -31.519,-26.021 -55.342,-27.121 l -451.165,-5.865 c -2.931,0 -5.497,-1.466 -6.963,-3.665 -1.466,-2.199 -1.832,-5.131 -1.1,-8.063 1.466,-4.397 5.864,-7.695 10.629,-8.063 l 455.196,-5.864 c 53.875,-2.564 112.516,-46.18 133.04,-99.688 l 26.021,-67.804 c 1.1,-2.932 1.466,-5.864 0.733,-8.796 -29.321,-132.674 -147.7,-231.63 -289.171,-231.63 -130.476,0 -241.158,84.295 -280.741,201.21 -25.655,-19.058 -58.273,-29.32 -93.457,-26.021 -62.673,6.23 -112.884,56.441 -119.114,119.113 -1.466,16.126 -0.366,31.886 3.299,46.545 -102.255,2.933 -183.983,86.495 -183.983,189.483 0,9.162 0.731,18.324 1.831,27.486 0.733,4.398 4.398,7.697 8.797,7.697 H 2353.4 c 4.765,0 9.164,-3.299 10.63,-8.063 z"
   id="path26" />
		<path
   fill="#faae40"
   d="m 2513.929,1308.136 c -4.031,0 -8.429,0 -12.461,0.366 -2.932,0 -5.497,2.199 -6.597,5.131 l -17.593,61.206 c -7.695,26.389 -4.764,50.578 8.063,68.536 11.728,16.492 31.52,26.021 55.343,27.121 l 96.023,5.864 c 2.932,0 5.498,1.466 6.963,3.665 1.466,2.199 1.833,5.497 1.1,8.063 -1.465,4.397 -5.864,7.695 -10.628,8.063 l -100.056,5.864 c -54.242,2.566 -112.517,46.18 -133.041,99.689 l -7.329,18.691 c -1.467,3.664 1.1,7.33 5.131,7.33 h 343.779 c 4.031,0 7.696,-2.566 8.796,-6.598 5.864,-21.258 9.162,-43.613 9.162,-66.703 0,-135.604 -110.683,-246.288 -246.655,-246.288"
   id="path28" />
	</g>
</g>
</svg>
