<?xml version="1.0" encoding="UTF-8" standalone="no"?>
<svg
   height="249.6322"
   width="1232.7087"
   viewBox="-72.03675 -32.46875 641.33573 60.789342"
   version="1.1"
   id="svg41"
   sodipodi:docname="github-logo.svg"
   inkscape:version="1.1.2 (0a00cf5339, 2022-02-04)"
   xmlns:inkscape="http://www.inkscape.org/namespaces/inkscape"
   xmlns:sodipodi="http://sodipodi.sourceforge.net/DTD/sodipodi-0.dtd"
   xmlns="http://www.w3.org/2000/svg"
   xmlns:svg="http://www.w3.org/2000/svg">
  <defs
     id="defs45" />
  <sodipodi:namedview
     id="namedview43"
     pagecolor="#555555"
     bordercolor="#666666"
     borderopacity="1.0"
     inkscape:pageshadow="2"
     inkscape:pageopacity="0"
     inkscape:pagecheckerboard="true"
     showgrid="false"
     fit-margin-top="0"
     fit-margin-left="0"
     fit-margin-right="0"
     fit-margin-bottom="0"
     inkscape:zoom="0.4743508"
     inkscape:cx="263.51805"
     inkscape:cy="135.97532"
     inkscape:window-width="1412"
     inkscape:window-height="1226"
     inkscape:window-x="-112"
     inkscape:window-y="31"
     inkscape:window-maximized="0"
     inkscape:current-layer="svg41" />
  <path
     d="m 181.55099,-11.423576 h -40.356 a 1.887,1.887 0 0 0 -1.886,1.8869997 V 10.193424 c 0,1.042 0.845,1.888 1.886,1.888 h 15.743 v 24.515 c 0,0 -3.535,1.204 -13.308,1.204 -11.53,0 -27.636,-4.212 -27.636,-39.6300003 0,-35.4260027 16.772,-40.0870027 32.517,-40.0870027 13.63,0 19.502,2.4 23.238,3.556 1.174,0.358 2.26,-0.81 2.26,-1.851 l 4.502,-19.064 c 0,-0.488 -0.165,-1.075 -0.72,-1.473001 -1.517,-1.082999 -10.774,-6.263 -34.161,-6.263 -26.94,0 -54.576,11.463 -54.576,66.5630037 0,55.1010003 31.64,63.3120003 58.303,63.3120003 22.076,0 35.468,-9.434 35.468,-9.434 0.552,-0.304 0.612,-1.076 0.612,-1.429 V -9.5365763 a 1.886,1.886 0 0 0 -1.886,-1.8869997 m 207.978,-48.986004 a 1.88,1.88 0 0 0 -1.873,-1.896999 h -22.723 a 1.889,1.889 0 0 0 -1.881,1.896999 l 0.005,43.914004 h -35.418 V -60.40958 c 0,-1.05 -0.836,-1.896999 -1.876,-1.896999 h -22.722 a 1.888,1.888 0 0 0 -1.876,1.896999 V 58.494424 c 0,1.048 0.843,1.902 1.876,1.902 h 22.722 c 1.04,0 1.876,-0.854 1.876,-1.902 V 7.6344237 h 35.418 l -0.061,50.8600003 c 0,1.048 0.841,1.902 1.883,1.902 h 22.775 c 1.04,0 1.872,-0.854 1.874,-1.902 z m -165.099,15.603 c 0,-8.181 -6.56,-14.793 -14.653,-14.793 -8.085,0 -14.65,6.612 -14.65,14.793001 0,8.174 6.565,14.804 14.65,14.804 8.093,0 14.653,-6.63 14.653,-14.804 m -1.625,78.219003 v -54.887 c 0,-1.041 -0.84,-1.893 -1.88,-1.893 h -22.65 c -1.04,0 -1.97,1.069999 -1.97,2.113 v 78.636 c 0,2.31 1.44,2.998 3.304,2.998 h 20.408 c 2.239,0 2.788,-1.1 2.788,-3.035 z m 253.081,-56.602 h -22.548 c -1.035,0 -1.876,0.852 -1.876,1.902 v 58.301 c 0,0 -5.73,4.192 -13.86,4.192 -8.13,0 -10.288,-3.69 -10.288,-11.65 v -50.844 c 0,-1.05 -0.84,-1.902 -1.875,-1.902 h -22.885 c -1.032,0 -1.879,0.852 -1.879,1.902 v 54.692 c 0,23.646 13.179,29.432 31.308,29.432 14.875,0 26.867,-8.218 26.867,-8.218 0,0 0.57,4.331 0.83,4.844 0.257,0.512 0.93,1.03 1.658,1.03 l 14.559,-0.064 c 1.032,0 1.878,-0.854 1.878,-1.899 l -0.008,-79.817 c 0,-1.05 -0.842,-1.902 -1.881,-1.902 m 52.736,64.324 c -7.822,-0.239 -13.127,-3.787 -13.127,-3.787 V -0.3085763 c 0,0 5.233,-3.208 11.655,-3.781 8.12,-0.727 15.944,1.725 15.944,21.0960003 0,20.425 -3.53,24.457 -14.472,24.127 m 8.893,-66.994003 c -12.807,0 -21.517,5.715002 -21.517,5.715002 V -60.40958 c 0,-1.05 -0.84,-1.896999 -1.875,-1.896999 h -22.788 a 1.887,1.887 0 0 0 -1.877,1.896999 V 58.494424 c 0,1.05 0.841,1.903 1.88,1.903 h 15.81 c 0.712,0 1.251,-0.368 1.65,-1.011 0.393,-0.639 0.96,-5.481 0.96,-5.481 0,0 9.317,8.829 26.956,8.829 20.71,0 32.585,-10.504 32.585,-47.155 0,-36.65 -18.968,-41.440003 -31.784,-41.440003 m -249.403,2.482003 h -17.045 l -0.026,-22.519003 c 0,-0.852 -0.438,-1.278 -1.425,-1.278 h -23.227 c -0.902,0 -1.388,0.398 -1.388,1.266 v 23.270003 c 0,0 -11.64,2.809 -12.426,3.037 a 1.886,1.886 0 0 0 -1.362,1.812 v 14.6229997 c 0,1.05 0.84,1.9 1.879,1.9 h 11.91 V 33.910424 c 0,26.128 18.327,28.695 30.694,28.695 5.652,0 12.412,-1.815 13.528,-2.227 0.675,-0.248 1.068,-0.946 1.068,-1.704 l 0.019,-16.086 c 0,-1.05 -0.887,-1.9 -1.884,-1.9 -0.994,0 -3.535,0.405 -6.151,0.405 -8.372,0 -11.21,-3.892 -11.21,-8.93 V -1.2685763 h 17.046 a 1.89,1.89 0 0 0 1.881,-1.9 V -21.483576 c 0,-1.05 -0.842,-1.895 -1.881,-1.895"
     fill="#ffffff"
     id="path39"
     style="fill:#ffffff" />
  <path
     fill-rule="evenodd"
     clip-rule="evenodd"
     d="m -7.0993,-67.011527 c -35.87794,0 -64.93745,29.79453 -64.93745,66.57997027 0,29.46161973 18.58834,54.34588973 44.40098,63.16773973 3.24687,0.58257 4.46445,-1.41483 4.46445,-3.16255 0,-1.58128 -0.0812,-6.82446 -0.0812,-12.40051 -16.31554,3.0793 -20.53647,-4.07804 -21.83522,-7.82315 -0.73054,-1.91418 -3.89625,-7.82316 -6.65609,-9.40442 -2.27281,-1.24837 -5.51968,-4.32769 -0.0812,-4.41093 5.11383,-0.0832 8.76656,4.82704 9.98413,6.82444 5.84437,10.07023 15.17913,7.24058 18.91304,5.49285 0.5682,-4.32769 2.27281,-7.24056 4.13976,-8.90505 -14.44858,-1.6645 -29.54654,-7.40705 -29.54654,-32.8738597 0,-7.2405803 2.51633,-13.2327703 6.65609,-17.8933903 -0.64938,-1.6645 -2.92219,-8.48894 0.64937,-17.64369 0,0 5.43851,-1.7477 17.8578,6.82447 5.195,-1.49806 10.71468,-2.24708 16.23436,-2.24708 5.51969,0 11.03937,0.74902 16.23436,2.24708 12.41929,-8.65541 17.8578,-6.82447 17.8578,-6.82447 3.57156,9.15475 1.29875,15.97919 0.64938,17.64369 4.13976,4.66062 6.65609,10.56958 6.65609,17.8933903 0,25.5500497 -15.17913,31.2093597 -29.62771,32.8738597 2.35398,2.08061 4.38327,6.07542 4.38327,12.31728 0,8.90507 -0.0812,16.06242 -0.0812,18.30949 0,1.74772 1.21758,3.82835 4.46445,3.16255 25.65029,-8.82185 44.23865,-33.78932 44.23865,-63.16773973 0,-36.78544027 -29.05952,-66.57997027 -64.93746,-66.57997027 z"
     fill="#1b1f23"
     id="path104"
     style="fill:#ffffff;stroke-width:8.21918" />
</svg>
