<?xml version="1.0" encoding="UTF-8" standalone="no"?>
<!-- Generator: Adobe Illustrator 19.1.0, SVG Export Plug-In . SVG Version: 6.00 Build 0)  -->

<svg
   version="1.1"
   id="Layer_1"
   x="0px"
   y="0px"
   viewBox="60 -8 143 40"
   style="enable-background:new 60 -8 143 40;"
   xml:space="preserve"
   sodipodi:docname="heroku-logo.svg"
   inkscape:version="1.1.2 (0a00cf5339, 2022-02-04)"
   xmlns:inkscape="http://www.inkscape.org/namespaces/inkscape"
   xmlns:sodipodi="http://sodipodi.sourceforge.net/DTD/sodipodi-0.dtd"
   xmlns="http://www.w3.org/2000/svg"
   xmlns:svg="http://www.w3.org/2000/svg"
   xmlns:rdf="http://www.w3.org/1999/02/22-rdf-syntax-ns#"
   xmlns:cc="http://creativecommons.org/ns#"
   xmlns:dc="http://purl.org/dc/elements/1.1/"><defs
   id="defs15" /><sodipodi:namedview
   id="namedview13"
   pagecolor="#ffffff"
   bordercolor="#666666"
   borderopacity="1.0"
   inkscape:pageshadow="2"
   inkscape:pageopacity="0.0"
   inkscape:pagecheckerboard="0"
   showgrid="false"
   inkscape:zoom="5.6293706"
   inkscape:cx="40.146584"
   inkscape:cy="50.716149"
   inkscape:window-width="1158"
   inkscape:window-height="1226"
   inkscape:window-x="940"
   inkscape:window-y="165"
   inkscape:window-maximized="0"
   inkscape:current-layer="nav" />
<title
   id="title2">Heroku logo</title>
<desc
   id="desc4">A platform as a service division of Salesforce.com</desc>
<style
   type="text/css"
   id="style6">
	.st0{fill:#430098;}
</style>
<g
   id="Page-1">
	<g
   id="main"
   transform="translate(-25.000000, -23.000000)">
		<g
   id="nav"
   transform="translate(25.000000, 23.000000)">
			<path
   id="logo"
   class="st0"
   d="m 187.2882,22.551665 v -8.8 h 4 v 8.8 c 0,2 0.7,3 2.3,3 1.6,0 2.2,-0.9 2.2,-3 v -8.8 h 3.9 v 8.9 c 0,3.9 -1.9,6.2 -6.2,6.2 -4.3,-0.1 -6.2,-2.4 -6.2,-6.3 z m -16.8,-8.8 h 4 v 5.4 l 4.1,-5.4 h 4.6 l -5,5.8 5.4,9 h -4.5 l -3.5,-5.9 -1.1,1.3 v 4.6 h -4 z m -19,7.3 c 0,-5.4 3.7,-7.7 7.3,-7.7 3.6,0 7.3,2.3 7.3,7.7 0,5.4 -3.7,7.7 -7.3,7.7 -3.6,0 -7.3,-2.2 -7.3,-7.7 z m 10.5,0 c 0,-2.7 -1.2,-4.4 -3.3,-4.4 -2.1,0 -3.3,1.7 -3.3,4.4 0,2.7 1.2,4.5 3.3,4.5 2.1,0 3.3,-1.7 3.3,-4.5 z m -26.6,-7.3 h 5.8 c 3.8,0 6.1,1.3 6.1,4.8 0,2.3 -1,3.7 -2.9,4.3 l 3.1,5.7 h -4.2 l -2.9,-5.1 h -1.1 v 5.1 h -3.9 z m 5.7,6.6 c 1.6,0 2.4,-0.5 2.4,-1.7 0,-1.2 -0.7,-1.7 -2.4,-1.7 h -1.7 v 3.4 z m -21,-6.6 h 10.6 v 3.3 h -6.6 v 2.4 h 4.7 v 3.1 h -4.7 v 2.7 h 6.9 v 3.2 h -10.9 z m -18.1,0 h 4 v 5.5 h 4.9 v -5.5 h 4 v 14.8 h -4 v -6 h -4.9 v 6 h -4 z"
   sodipodi:nodetypes="sccsssccscscccccccccccccsssssssssscssccccccccssscccsccccccccccccccccccccccccccc"
   style="fill:#8b31ff;fill-opacity:1" />
		</g>
	</g><g
   id="main-1"
   transform="translate(-24.9,-23)"><g
     id="nav-0"
     transform="translate(25,23)"><path
       id="logo-8"
       class="st0"
       d="M 92.3,-8 H 63.6 c -2,0 -3.6,1.6 -3.6,3.6 v 32.8 c 0,2 1.6,3.6 3.6,3.6 h 28.7 c 2,0 3.6,-1.6 3.6,-3.6 V -4.4 c 0,-2 -1.6,-3.6 -3.6,-3.6 z m 1.6,36.4 c 0,0.9 -0.7,1.6 -1.6,1.6 H 63.6 C 62.7,30 62,29.3 62,28.4 V -4.4 C 62,-5.3 62.7,-6 63.6,-6 h 28.7 c 0.9,0 1.6,0.7 1.6,1.6 z M 69,26 73.5,22 69,18 Z M 85.2,9.8 C 84.4,9 82.9,8 80.4,8 77.7,8 74.9,8.7 72.9,9.4 V -2 h -4 V 15.3 L 71.7,14 c 0,0 4.6,-2.1 8.6,-2.1 2,0 2.5,1.1 2.5,2.1 v 12 h 4 V 14 c 0.1,-0.3 0.1,-2.5 -1.6,-4.2 z M 79.9,4.5 h 4 c 1.8,-2.1 2.7,-4.2 3,-6.5 h -4 c -0.4,2.3 -1.4,4.4 -3,6.5 z"
       sodipodi:nodetypes="ssssssssssssssssssccccsscccccsscccsccccc"
       style="fill:#8c33ff;fill-opacity:1" /></g></g>
</g>
<metadata
   id="metadata17"><rdf:RDF><cc:Work
       rdf:about=""><dc:title>Heroku logo</dc:title></cc:Work></rdf:RDF></metadata></svg>
