<?xml version="1.0" encoding="UTF-8" standalone="no"?>
<!-- Created with Inkscape (http://www.inkscape.org/) -->
<svg
   xmlns:svg="http://www.w3.org/2000/svg"
   xmlns="http://www.w3.org/2000/svg"
   version="1.0"
   width="673.22833"
   height="534.685"
   id="svg26043">
  <defs
     id="defs26045"><clipPath
   id="clp2">
<path
   d="M 504.8,684.19 L 510.79,680.34 L 510.79,630.8 L 504.8,627.61 L 504.8,684.19"
   id="path24258" />

</clipPath>
<clipPath
   id="clp3">
<path
   d="M 437,684.47 L 520.36,684.47 L 520.36,619.27 L 437,619.27 L 437,684.47 z "
   id="path24269" />

</clipPath>
<clipPath
   id="clp4">
<path
   d="M 471.04,674.35 L 480.03,683.94 L 504.8,683.94 L 504.8,627.81 L 480.03,627.81 L 480.03,653.98 L 471.04,644.59 L 461.85,653.98 L 461.85,627.81 L 437.48,627.81 L 437.48,683.94 L 461.85,683.94 L 471.04,674.35"
   id="path24278" />

</clipPath>
<clipPath
   id="clp5">
<path
   d="M 437,684.47 L 520.36,684.47 L 520.36,619.27 L 437,619.27 L 437,684.47 z "
   id="path24289" />

</clipPath>
<clipPath
   id="clp6">
<path
   d="M 477.83,646.19 L 480.03,648.18 L 480.03,653.98 L 470.84,644.59 L 477.83,646.19"
   id="path24298" />

</clipPath>
<clipPath
   id="clp7">
<path
   d="M 461.85,653.98 L 466.85,648.58 L 466.85,630.8 L 461.85,627.61 L 461.85,653.98"
   id="path24311" />

</clipPath>
<clipPath
   id="clp8">
<path
   d="M 461.65,684.14 L 471.94,680.34 L 474.34,677.95 L 471.04,674.35 L 461.65,684.14"
   id="path24326" />

</clipPath>
<clipPath
   id="clp9">
<path
   d="M 437,684.47 L 520.36,684.47 L 520.36,619.27 L 437,619.27 L 437,684.47 z "
   id="path24337" />

</clipPath>
<clipPath
   id="clp10">
<path
   d="M 496.71,655.38 C 497.11,653.68 497.81,648.88 499.81,653.68 C 503.34,662.17 506.62,665.32 511.59,672.35 C 512.25,673.29 512.41,674.02 513.29,674.75 C 514.8,676 516.44,676.85 518.18,675.95 C 520.35,674.83 520.38,671.61 519.08,669.76 C 517.68,667.76 515.29,667.46 514.39,666.36 C 510.02,661.02 508.35,657.41 505,651.38 C 504.08,649.72 503.35,648.87 502.7,647.09 C 502,645.14 502,644.59 501.7,641.89 C 501.53,640.36 501.2,638.8 499.41,638.6 C 496.81,638.3 495.56,640.42 494.91,642.39 C 492.51,649.68 490.32,659.07 490.42,660.37 C 490.52,661.72 491.67,662.56 493.01,662.67 C 494.43,662.78 495.73,661.97 496.01,660.57 C 496.21,659.57 496.39,656.73 496.71,655.38"
   id="path24360" />

</clipPath>
<clipPath
   id="clp11">
<path
   d="M 437,684.47 L 520.36,684.47 L 520.36,619.27 L 437,619.27 L 437,684.47 z "
   id="path24371" />

</clipPath>
<clipPath
   id="clp12">
<path
   d="M 481.83,668.16 C 482.49,668.78 483.02,669.1 483.92,669.16 C 484.97,669.22 485.72,669.16 486.42,668.16 C 486.48,668.08 491.02,669.86 492.61,672.05 C 494.29,674.36 499.61,671.35 496.01,668.46 C 494.51,667.25 491.03,666.54 488.22,664.66 C 487.62,664.26 489.52,651.58 488.52,642.19 C 488.46,641.68 489.05,639.34 489.32,637.8 C 489.82,634.9 489.02,633.5 486.82,633.2 C 484.8,632.93 483.43,633 482.83,636.5 C 482.48,638.49 482.03,641.29 482.53,643.79 C 484.02,651.28 482.23,660.87 481.53,660.67 C 477.93,659.64 477.31,658.72 474.94,656.97 C 472.85,655.44 472.44,651.68 470.04,652.48 C 468.76,652.9 467.63,654.52 468.04,656.07 C 468.42,657.47 469.68,657.78 471.04,658.27 C 473.84,659.27 474.46,660.99 476.83,662.47 C 478.32,663.39 480.53,664.26 480.73,664.66 C 481.05,665.31 480.78,667.18 481.83,668.16"
   id="path24380" />

</clipPath>
<clipPath
   id="clp15">
<path
   d="M 0.5,842.5 L 595.5,842.5 L 595.5,0.5 L 0.5,0.5 L 0.5,842.5 z "
   id="path24406" />

</clipPath>
<clipPath
   id="clp14">
<path
   d="M -1,843 L 596,843 L 596,-1 L -1,-1 L -1,843 z "
   id="path24400" />

</clipPath>
<linearGradient
   id="linearGradient5905">
  <stop
     style="stop-color:#eb008b;stop-opacity:1"
     offset="0"
     id="stop5907" />
  <stop
     style="stop-color:white;stop-opacity:1"
     offset="0.49565217"
     id="stop5913" />
  <stop
     style="stop-color:#eb008b;stop-opacity:1"
     offset="1"
     id="stop5909" />
</linearGradient>





















</defs>
  <g
     transform="translate(17.71604,17.70182)"
     id="g25972">
    <path
       d="M 564.54221,435.49136 L 564.54221,2.1446323 L 564.54221,435.49136"
       style="fill:#0168ac;fill-rule:nonzero;stroke:none"
       id="path24264" />
    <g
       transform="matrix(7.659009,0,0,-7.659009,-3347.603,5242.362)"
       style="fill:#018bd5;fill-opacity:1"
       clip-path="url(#clp3)"
       id="g24271">
<path
   d="M 504.8,684.19 L 510.79,680.34 L 510.79,630.8 L 504.8,627.61 L 504.8,684.19 z "
   style="fill:#018bd5;fill-opacity:1;stroke:#211d1e;stroke-width:0.56599998;stroke-linecap:butt;stroke-linejoin:bevel;stroke-miterlimit:3.86400008;stroke-dasharray:none"
   id="path24273" />

</g>
    <g
       transform="matrix(7.659009,0,0,-7.659009,-3347.603,5242.362)"
       style="fill:#fcb014;fill-opacity:1"
       clip-path="url(#clp5)"
       id="g24291">
<path
   d="M 471.04,674.35 L 480.03,683.94 L 504.8,683.94 L 504.8,627.81 L 480.03,627.81 L 480.03,653.98 L 471.04,644.59 L 461.85,653.98 L 461.85,627.81 L 437.48,627.81 L 437.48,683.94 L 461.85,683.94 L 471.04,674.35 z "
   style="fill:#fcb014;fill-opacity:1;stroke:#211d1e;stroke-width:0.79900002;stroke-linecap:butt;stroke-linejoin:miter;stroke-miterlimit:3.86400008;stroke-dasharray:none"
   id="path24293" />

</g>
    <path
       d="M 312.10063,293.1909 L 328.95047,277.94947 L 328.95047,233.52721 L 258.56416,305.4453 L 312.10063,293.1909 z "
       style="fill:#018bd5;fill-opacity:1;stroke:#211d1e;stroke-width:4.33499861;stroke-linecap:butt;stroke-linejoin:bevel;stroke-miterlimit:3.86400008;stroke-dasharray:none"
       id="path24306" />
    <path
       d="M 228.00535,435.49136 L 228.00535,233.52329 L 228.00535,435.49136"
       style="fill:#0168ac;fill-rule:nonzero;stroke:none"
       id="path24317" />
    <path
       d="M 189.70967,233.52721 L 228.00472,274.88587 L 228.00472,411.06305 L 189.70967,435.49527 L 189.70967,233.52721 z "
       style="fill:#018bd5;fill-opacity:1;stroke:#211d1e;stroke-width:4.33499861;stroke-linecap:butt;stroke-linejoin:bevel;stroke-miterlimit:3.86400008;stroke-dasharray:none"
       id="path24321" />
    <path
       d="M 285.37133,77.509281 L 285.37133,2.5275827 L 285.37133,77.509281"
       style="fill:#0168ac;fill-rule:nonzero;stroke:none"
       id="path24332" />
    <path
       d="M 188.1785,2.5275827 L 266.98971,31.631817 L 285.37133,49.936848 L 260.0966,77.509281 L 188.1785,2.5275827 z "
       style="fill:#018bd5;fill-opacity:1;stroke:#211d1e;stroke-width:4.33499908;stroke-linecap:butt;stroke-linejoin:bevel;stroke-miterlimit:3.86400008;stroke-dasharray:none"
       id="path24341" />
    <path
       d="M 114.03125,451.28125 C 103.92136,451.28126 97.65625,455.62656 97.65625,464.28125 C 97.656253,466.04282 97.94671,467.59012 98.40625,468.96875 C 99.018983,470.73031 100.10423,472.16673 101.40625,473.46875 C 103.85713,475.76645 107.29858,477.554 111.28125,479.46875 C 113.88531,480.77078 116.71205,481.90389 117.9375,484.125 C 118.32045,484.81431 118.5625,485.58092 118.5625,486.5 C 118.5625,488.79769 117.1886,491.09375 114.125,491.09375 C 109.98913,491.09376 108.96875,488.72906 108.96875,486.125 L 108.96875,484.125 L 108.96875,482.90625 L 96.875,482.90625 L 96.875,484.125 L 96.875,487.71875 C 96.875,493.84596 101.92694,499.28125 113.875,499.28125 C 124.6742,499.28124 130.59375,494.46411 130.59375,485.65625 C 130.59375,485.12012 130.59375,484.58454 130.59375,484.125 C 130.28738,479.45302 128.50724,476.76951 125.75,474.625 C 123.06937,472.55708 119.41403,471.11327 115.125,468.96875 C 114.66545,468.66238 114.1158,468.41728 113.65625,468.1875 C 111.05219,466.73231 109.38113,465.2885 109.6875,462.53125 C 109.99386,460.53992 111.58343,459.31557 114.1875,459.46875 C 118.55312,459.7751 118.40932,463.44434 118.5625,466.125 L 130.5,466.125 C 131.11271,457.4703 125.29001,451.28125 114.03125,451.28125 z M 169.09375,451.28125 C 157.14571,451.28126 151.65625,455.87296 151.65625,465.90625 L 151.65625,468.96875 L 151.65625,484.125 L 151.65625,484.75 C 151.65625,494.09398 156.22536,499.28125 168.25,499.28125 C 181.57668,499.28124 187.09375,493.85753 187.09375,485.96875 L 187.09375,484.125 L 187.09375,480.3125 L 174.09375,480.3125 L 174.09375,484.125 L 174.09375,484.4375 C 174.09374,487.27133 173.69223,491.09375 169.25,491.09375 C 165.80344,491.09376 164.59375,489.57282 164.59375,486.96875 L 164.59375,484.125 L 164.59375,468.96875 L 164.65625,464.28125 C 164.65625,461.21764 165.59699,459.46875 169.65625,459.46875 C 172.10713,459.46874 173.84375,461.53142 173.84375,465.4375 L 173.84375,468.34375 L 186.875,468.34375 L 186.875,464.53125 C 186.87501,455.18725 180.19932,451.28125 169.09375,451.28125 z M 413.96875,451.28125 C 403.93544,451.28126 397.65625,455.62656 397.65625,464.28125 C 397.65626,466.04282 397.87011,467.59012 398.40625,468.96875 C 399.01894,470.73031 400.10423,472.16673 401.40625,473.46875 C 403.85717,475.76645 407.29855,477.554 411.28125,479.46875 C 413.88531,480.77078 416.71205,481.90389 417.9375,484.125 C 418.32047,484.81431 418.5,485.58092 418.5,486.5 C 418.49999,488.79769 417.1886,491.09375 414.125,491.09375 C 409.98915,491.09376 409,488.72906 409,486.125 L 409,484.125 L 409,482.90625 L 396.875,482.90625 L 396.875,484.125 L 396.875,487.71875 C 396.87499,493.84596 401.92695,499.28125 413.875,499.28125 C 424.6742,499.28124 430.59375,494.46411 430.59375,485.65625 C 430.59374,485.12012 430.57659,484.58454 430.5,484.125 C 430.27023,479.45302 428.50725,476.76951 425.75,474.625 C 423.06937,472.55708 419.41403,471.11327 415.125,468.96875 C 414.66544,468.66238 414.11579,468.41728 413.65625,468.1875 C 411.05217,466.73231 409.38113,465.2885 409.6875,462.53125 C 409.99385,460.53992 411.58346,459.31557 414.1875,459.46875 C 418.47656,459.7751 418.31557,463.44434 418.46875,466.125 L 430.5,466.125 C 431.11273,457.4703 425.30407,451.28125 413.96875,451.28125 z M 469.5,451.28125 C 458.08805,451.28126 451.65625,456.08432 451.65625,464.96875 L 451.65625,468.96875 L 451.65625,483.59375 C 451.65624,483.74693 451.71875,483.97182 451.71875,484.125 C 451.79533,494.1583 456.47968,499.28125 469.5,499.28125 C 482.44373,499.28124 486.87807,494.1583 487.03125,484.125 C 487.03124,483.97183 487.03125,483.74693 487.03125,483.59375 L 487.03125,468.96875 L 487.03125,464.96875 C 487.03124,456.08431 480.83532,451.28125 469.5,451.28125 z M 5.21875,452.34375 L 5.21875,468.96875 L 5.21875,484.125 L 5.21875,498.21875 L 17.53125,498.21875 L 17.0625,484.125 L 16.625,468.96875 L 16.375,462.21875 L 16.46875,462.21875 L 18.15625,468.96875 L 21.96875,484.125 L 25.4375,498.21875 L 35.15625,498.21875 L 38.75,484.125 L 42.65625,468.96875 L 44.34375,462.21875 L 44.5,462.21875 L 44.25,468.96875 L 43.65625,484.125 L 43.1875,498.21875 L 55.59375,498.21875 L 55.59375,484.125 L 55.59375,468.96875 L 55.59375,452.34375 L 37.375,452.34375 L 33.09375,468.96875 L 30.40625,479.46875 L 30.25,479.46875 L 27.65625,468.96875 L 23.5,452.34375 L 5.21875,452.34375 z M 59.96875,452.34375 L 59.96875,468.96875 L 59.96875,484.125 L 59.96875,485.59375 C 59.96875,495.01434 66.408527,499.28125 77.4375,499.28125 C 90.764173,499.28124 94.96875,493.32935 94.96875,485.59375 L 94.96875,484.125 L 94.96875,468.96875 L 94.96875,452.34375 L 81.9375,452.34375 L 81.9375,468.96875 L 81.9375,484.125 L 81.9375,486.65625 C 81.937499,488.6476 80.946554,491.09375 77.5,491.09375 C 73.823679,491.09376 73,489.18986 73,486.96875 L 73,484.125 L 73,468.96875 L 73,452.34375 L 59.96875,452.34375 z M 134.25,452.34375 L 134.25,468.96875 L 134.25,484.125 L 134.25,498.21875 L 147.28125,498.21875 L 147.28125,484.125 L 147.28125,468.96875 L 147.28125,452.34375 L 134.25,452.34375 z M 205.40625,452.34375 L 205.40625,461.53125 L 215.6875,461.53125 L 215.6875,468.96875 L 215.6875,484.125 L 215.6875,498.21875 L 228.6875,498.21875 L 228.6875,484.125 L 228.6875,468.96875 L 228.6875,461.53125 L 239.1875,461.53125 L 239.1875,452.34375 L 205.40625,452.34375 z M 241.9375,452.34375 L 241.9375,468.96875 L 241.9375,484.125 L 241.9375,498.21875 L 272.65625,498.21875 L 272.65625,489.03125 L 254.96875,489.03125 L 254.96875,484.125 L 254.96875,479.15625 L 271.28125,479.15625 L 271.28125,469.96875 L 254.96875,469.96875 L 254.96875,468.96875 L 254.96875,461.53125 L 271.8125,461.53125 L 271.8125,452.34375 L 241.9375,452.34375 z M 276.03125,452.34375 L 276.03125,468.96875 L 276.03125,484.125 L 276.03125,498.21875 L 304.96875,498.21875 L 304.96875,489.03125 L 289.0625,489.03125 L 289.0625,484.125 L 289.0625,468.96875 L 289.0625,452.34375 L 276.03125,452.34375 z M 307.28125,452.34375 L 307.28125,468.96875 L 307.28125,484.125 L 307.28125,498.21875 L 338,498.21875 L 338,489.03125 L 320.28125,489.03125 L 320.28125,484.125 L 320.28125,479.15625 L 336.53125,479.15625 L 336.53125,469.96875 L 320.28125,469.96875 L 320.28125,468.96875 L 320.28125,461.53125 L 337.0625,461.53125 L 337.0625,452.34375 L 307.28125,452.34375 z M 339.375,452.34375 L 343.71875,468.96875 L 347.71875,484.125 L 351.46875,498.21875 L 366.78125,498.21875 L 370.53125,484.125 L 374.53125,468.96875 L 378.96875,452.34375 L 365.875,452.34375 L 362.40625,468.96875 L 359.28125,484.125 L 359.21875,484.5 L 359.0625,484.5 L 358.96875,484.125 L 355.84375,468.96875 L 352.375,452.34375 L 339.375,452.34375 z M 381.1875,452.34375 L 381.1875,468.96875 L 381.1875,484.125 L 381.1875,498.21875 L 394.28125,498.21875 L 394.28125,484.125 L 394.28125,468.96875 L 394.28125,452.34375 L 381.1875,452.34375 z M 434.1875,452.34375 L 434.1875,468.96875 L 434.1875,484.125 L 434.1875,498.21875 L 447.28125,498.21875 L 447.28125,484.125 L 447.28125,468.96875 L 447.28125,452.34375 L 434.1875,452.34375 z M 490.78125,452.34375 L 490.78125,468.96875 L 490.78125,484.125 L 490.78125,498.21875 L 503.125,498.21875 L 502.5,484.125 L 501.96875,472.65625 L 502.125,472.5 L 506.71875,484.125 L 512.21875,498.21875 L 525.5625,498.21875 L 525.5625,484.125 L 525.5625,468.96875 L 525.5625,452.34375 L 513.21875,452.34375 L 514,468.96875 L 514.4375,478 L 514.21875,478 L 510.6875,468.96875 L 504.1875,452.34375 L 490.78125,452.34375 z M 469.40625,459.46875 C 473.69528,459.46874 473.9375,462.82242 473.9375,465.65625 L 473.9375,468.96875 L 473.9375,484.125 L 473.9375,484.5 C 473.9375,487.18064 473.71245,491.09375 469.5,491.09375 C 465.21096,491.09376 464.75,487.18065 464.75,484.5 L 464.75,484.125 L 464.75,468.96875 L 464.75,465.65625 C 464.75001,462.82243 465.1938,459.46875 469.40625,459.46875 z "
       style="fill:#211d1e;fill-rule:evenodd;stroke:none;stroke-width:0.56599998;stroke-linecap:butt;stroke-linejoin:bevel;stroke-miterlimit:3.86400008;stroke-dasharray:none"
       id="path24343" />
    <path
       d="M 549.37675,478.99844 C 557.2655,478.99844 563.77567,472.56489 563.77567,464.52293 C 563.77567,456.63414 557.2655,450.12397 549.37675,450.12397 C 541.33478,450.12397 534.9012,456.63414 534.9012,464.52293 C 534.9012,472.56489 541.33478,478.99844 549.37675,478.99844 z M 549.37675,476.31779 C 542.86657,476.31779 537.58186,471.10966 537.58186,464.52293 C 537.58186,458.08934 542.86657,452.88122 549.37675,452.88122 C 555.8103,452.88122 561.01843,458.08934 561.01843,464.52293 C 561.01843,471.10966 555.8103,476.31779 549.37675,476.31779 z M 552.74669,465.82494 C 555.50394,465.67176 557.03576,464.44633 557.03576,461.6125 C 557.03576,460.00409 556.57621,458.54889 555.19757,457.6298 C 553.97215,456.86392 552.28715,456.86392 550.90854,456.86392 L 543.40271,456.86392 L 543.40271,472.41171 L 546.46632,472.41171 L 546.46632,465.82494 L 549.5299,465.82494 L 552.97647,472.41171 L 556.49962,472.41171 L 552.74669,465.82494 z M 546.46632,463.52724 L 546.46632,459.16162 L 550.21922,459.16162 C 551.75104,459.16162 553.97215,459.16162 553.97215,461.15295 C 553.97215,463.14429 552.74669,463.52724 550.98513,463.52724 L 546.46632,463.52724"
       style="fill:#211d1e;fill-rule:evenodd;stroke:none"
       id="path24355" />
    <g
       transform="matrix(7.659009,0,0,-7.659009,-3347.603,5242.362)"
       style="fill:#bf1b20;fill-opacity:1"
       clip-path="url(#clp11)"
       id="g24373">
<path
   d="M 496.71,655.38 C 497.11,653.68 497.81,648.88 499.81,653.68 C 503.34,662.17 506.62,665.32 511.59,672.35 C 512.25,673.29 512.41,674.02 513.29,674.75 C 514.8,676 516.44,676.85 518.18,675.95 C 520.35,674.83 520.38,671.61 519.08,669.76 C 517.68,667.76 515.29,667.46 514.39,666.36 C 510.02,661.02 508.35,657.41 505,651.38 C 504.08,649.72 503.35,648.87 502.7,647.09 C 502,645.14 502,644.59 501.7,641.89 C 501.53,640.36 501.2,638.8 499.41,638.6 C 496.81,638.3 495.56,640.42 494.91,642.39 C 492.51,649.68 490.32,659.07 490.42,660.37 C 490.52,661.72 491.67,662.56 493.01,662.67 C 494.43,662.78 495.73,661.97 496.01,660.57 C 496.21,659.57 496.39,656.73 496.71,655.38 z "
   style="fill:#bf1b20;fill-opacity:1;stroke:#211d1e;stroke-width:0.79900002;stroke-linecap:butt;stroke-linejoin:miter;stroke-miterlimit:3.86400008;stroke-dasharray:none"
   id="path24375" />

</g>
    <path
       d="M 342.73667,124.92248 C 347.79161,120.1739 351.8509,117.72302 358.744,117.26347 C 366.78596,116.80393 372.53023,117.26347 377.89154,124.92248 C 378.35108,125.53518 413.12297,111.90216 425.30079,95.12892 C 438.16792,77.43661 478.91385,100.49023 451.34142,122.62478 C 439.8529,131.89217 413.19956,137.33007 391.67774,151.729 C 387.08234,154.79261 401.63444,251.90884 393.97544,323.82693 C 393.51592,327.73301 398.03473,345.65509 400.10265,357.44998 C 403.93217,379.6611 397.80495,390.38372 380.95514,392.68142 C 365.48395,394.74935 354.9911,394.21321 350.39567,367.40669 C 347.71505,352.16527 344.26848,330.72003 348.09797,311.57252 C 359.50991,254.20654 345.80027,180.75665 340.43897,182.28844 C 312.86654,190.17722 308.11796,197.22351 289.9661,210.62678 C 273.95877,222.34508 270.8186,251.14293 252.43697,245.01574 C 242.63344,241.79895 233.97875,229.39136 237.11895,217.51988 C 240.02938,206.79729 249.67972,204.423 260.09598,200.67007 C 281.54119,193.01106 286.28979,179.83756 304.44162,168.50224 C 315.85356,161.45594 332.77996,154.79261 334.31177,151.729 C 336.76266,146.75064 334.69473,132.42831 342.73667,124.92248 z "
       style="fill:#bf1b20;fill-opacity:1;stroke:#211d1e;stroke-width:6.11954784;stroke-linecap:butt;stroke-linejoin:miter;stroke-miterlimit:3.86400008;stroke-dasharray:none"
       id="path24390" />
  </g>
</svg>
