<svg version="1.1" viewBox="0 0 11.764 22.486" xml:space="preserve" xmlns="http://www.w3.org/2000/svg">
<g transform="translate(-.00039665 -3.108)">
	
		
			<path d="m3.136 11.14s0.886-1.142 0.313-2.728c-0.575-1.585-1.914-2.187-1.914-2.187s-1.002 1.361-0.442 2.906c0.559 1.546 2.043 2.009 2.043 2.009z"/>
			<path d="m5.595 11.951s1.549-0.124 2.436-1.509c0.887-1.384 0.209-2.932 0.209-2.932s-1.438 0.292-2.349 1.713c-0.91 1.42-0.296 2.728-0.296 2.728z"/>
			<path d="m5.752 13.781c-0.717 1.527 0.062 2.745 0.062 2.745s1.521-0.326 2.219-1.813c0.697-1.489-0.177-2.935-0.177-2.935s-1.387 0.476-2.104 2.003z"/>
			<path d="m9.253 15.011s-1.337 0.606-1.907 2.192c-0.57 1.589 0.319 2.727 0.319 2.727s1.482-0.467 2.038-2.014c0.555-1.547-0.45-2.905-0.45-2.905z"/>
			<path d="m10.367 23.363s1.286-0.875 1.373-2.516c0.086-1.642-1.269-2.652-1.269-2.652s-1.106 0.965-1.195 2.649c-0.088 1.683 1.091 2.519 1.091 2.519z"/>
			<path d="m5.111 8.084s1.371-0.458 1.773-2.095c0.403-1.637-0.376-2.881-0.376-2.881s-1.588 0.576-1.981 2.173c-0.392 1.596 0.584 2.803 0.584 2.803z"/>
			<path d="m3.135 14.621s0.509-1.353-0.506-2.698c-1.017-1.346-2.473-1.527-2.473-1.527s-0.556 1.596 0.434 2.908c0.99 1.313 2.545 1.317 2.545 1.317z"/>
			<path d="m4.271 18.191s0.195-1.432-1.093-2.518c-1.29-1.087-2.75-0.939-2.75-0.939s-0.188 1.68 1.068 2.739c1.258 1.058 2.775 0.718 2.775 0.718z"/>
			<path d="m6.001 21.143s-0.245-1.424-1.803-2.068c-1.559-0.646-2.905-0.063-2.905-0.063s0.33 1.658 1.848 2.288c1.518 0.627 2.86-0.157 2.86-0.157z"/>
			<path d="m6.757 22.369c-1.624-0.454-2.892 0.285-2.892 0.285s0.525 1.606 2.107 2.049c1.584 0.443 2.822-0.496 2.822-0.496s-0.413-1.385-2.037-1.838z"/>
			<path d="m5.28 9.06-0.722-0.355c-0.038 0.079-3.752 7.968 6.684 16.889l0.522-0.611c-9.936-8.495-6.63-15.624-6.484-15.923z"/>
		
		
	
</g>















</svg>
